<?xml version="1.0" encoding="UTF-8"?>
<svg version="1.1" xmlns="http://www.w3.org/2000/svg" width="500" height="93">
<path d="M0 0 C7.54462343 5.48124487 14.66355014 12.95316811 16.515625 22.37890625 C17.3834872 30.29814883 16.61532693 36.52028542 12.515625 43.37890625 C12.12632813 44.0440625 11.73703125 44.70921875 11.3359375 45.39453125 C2.51059984 58.6586482 -12.7714857 64.7631426 -27.671875 68.25390625 C-49.26890524 72.01873303 -70.76777311 69.08797657 -89.484375 57.37890625 C-92.44993131 55.26323498 -94.98941314 53.02599993 -97.484375 50.37890625 C-98.03351563 49.84910156 -98.58265625 49.31929687 -99.1484375 48.7734375 C-104.62884577 43.0905511 -106.94458348 36.15744687 -108.046875 28.44140625 C-107.36266534 17.98582731 -101.10845518 9.0867394 -93.484375 2.37890625 C-84.84051989 -4.14410908 -75.80209974 -7.73704935 -65.484375 -10.62109375 C-64.26105469 -10.98589844 -63.03773437 -11.35070312 -61.77734375 -11.7265625 C-40.92016396 -16.80081315 -17.70857996 -11.55512686 0 0 Z " fill="#040404" transform="translate(115.484375,19.62109375)"/>
<path d="M0 0 C0.66 0.33 1.32 0.66 2 1 C0.68 1.99 -0.64 2.98 -2 4 C-1.67 4.33 -1.34 4.66 -1 5 C-0.90634994 6.7492872 -0.88255562 8.50236254 -0.88647461 10.25415039 C-0.88655014 11.37523697 -0.88662567 12.49632355 -0.88670349 13.65138245 C-0.89186478 14.8711528 -0.89702606 16.09092316 -0.90234375 17.34765625 C-0.9037587 18.58921982 -0.90517365 19.83078339 -0.90663147 21.10997009 C-0.91129409 24.41605491 -0.92028503 27.72207146 -0.93133545 31.02813721 C-0.94155173 34.3996115 -0.94612955 37.77109283 -0.95117188 41.14257812 C-0.96222605 47.76173775 -0.97898264 54.38086493 -1 61 C-1.99 61 -2.98 61 -4 61 C-2.02 61.99 -0.04 62.98 2 64 C2 63.34 2 62.68 2 62 C3.98 62 5.96 62 8 62 C8 45.83 8 29.66 8 13 C8.66 13 9.32 13 10 13 C12.15080089 17.56730941 14.30125418 22.13478228 16.45141602 26.70239258 C17.17951577 28.2489846 17.90770268 29.79553558 18.63598633 31.34204102 C19.34349188 32.84445273 20.05059949 34.34705191 20.75730896 35.84983826 C21.46371226 37.34910188 22.17258903 38.84720256 22.88392639 40.34413147 C24.62116177 44.01014414 26.30876636 47.68499279 27.89819336 51.41772461 C28.2006749 52.1117186 28.50315643 52.80571259 28.81480408 53.52073669 C29.6352354 55.41084302 30.43550989 57.30966239 31.234375 59.20898438 C32.75201864 62.18585121 32.75201864 62.18585121 35.640625 63.15039062 C38.22471722 63.41565707 40.44025202 63.40688147 43 63 C43.37769531 61.7521875 43.75539063 60.504375 44.14453125 59.21875 C46.10102813 53.3572731 48.86580131 47.98457757 51.6875 42.5 C52.76071571 40.38622884 53.83232033 38.27163894 54.90234375 36.15625 C55.42683105 35.11984375 55.95131836 34.0834375 56.49169922 33.015625 C59.79643818 26.40828675 62.90204025 19.70617168 66 13 C66.33 13 66.66 13 67 13 C67 29.17 67 45.34 67 62 C68.98 62 70.96 62 73 62 C73 62.66 73 63.32 73 64 C74.32 63.34 75.64 62.68 77 62 C77 42.2 77 22.4 77 2 C88.33233426 8.29574126 94.88288761 14.64866284 99 27 C99.72567688 34.92296401 99.10136537 41.1385963 95 48 C94.61070313 48.66515625 94.22140625 49.3303125 93.8203125 50.015625 C84.99497484 63.27974195 69.7128893 69.38423635 54.8125 72.875 C33.21546976 76.63982678 11.71660189 73.70907032 -7 62 C-9.96555631 59.88432873 -12.50503814 57.64709368 -15 55 C-15.54914062 54.47019531 -16.09828125 53.94039062 -16.6640625 53.39453125 C-22.14447077 47.71164485 -24.46020848 40.77854062 -25.5625 33.0625 C-24.87688081 22.58538169 -18.59015737 13.76488758 -11 7 C-7.49048338 4.37597568 -3.96830885 1.8790112 0 0 Z " fill="#111111" transform="translate(33,15)"/>
<path d="M0 0 C0.33 0 0.66 0 1 0 C1 16.17 1 32.34 1 49 C2.98 49 4.96 49 7 49 C7 49.66 7 50.32 7 51 C4.8784714 51.8009229 2.75254958 52.59021092 0.625 53.375 C-0.55835938 53.81585938 -1.74171875 54.25671875 -2.9609375 54.7109375 C-11.13538889 57.4723822 -19.15351769 58.36423562 -27.75 58.3125 C-29.1879895 58.30621582 -29.1879895 58.30621582 -30.6550293 58.29980469 C-41.82699034 58.1232026 -52.00250241 56.21033605 -62 51 C-62 50.67 -62 50.34 -62 50 C-60.35 50 -58.7 50 -57 50 C-57 33.83 -57 17.66 -57 1 C-54.01292569 3.98707431 -52.87018566 6.03277302 -51.14453125 9.8203125 C-50.60868408 10.98844482 -50.07283691 12.15657715 -49.52075195 13.36010742 C-49.24188141 13.97566498 -48.96301086 14.59122253 -48.6756897 15.22543335 C-47.80816313 17.13454387 -46.9277632 19.03721697 -46.04370117 20.9387207 C-43.48951152 26.44783239 -40.9780021 31.95893955 -38.71875 37.59765625 C-36.03661566 45.2012733 -36.03661566 45.2012733 -30.29296875 50.2421875 C-27.66813021 50.54321793 -25.59422498 50.37657612 -23 50 C-22.62230469 48.7521875 -22.24460938 47.504375 -21.85546875 46.21875 C-19.89897187 40.3572731 -17.13419869 34.98457757 -14.3125 29.5 C-13.23928429 27.38622884 -12.16767967 25.27163894 -11.09765625 23.15625 C-10.57316895 22.11984375 -10.04868164 21.0834375 -9.50830078 20.015625 C-6.20356182 13.40828675 -3.09795975 6.70617168 0 0 Z " fill="#F7F7F7" transform="translate(99,28)"/>
<path d="M0 0 C0 0.33 0 0.66 0 1 C-3.3 1 -6.6 1 -10 1 C-10.27763184 1.87221191 -10.55526367 2.74442383 -10.84130859 3.64306641 C-11.92092114 6.77089459 -13.15299759 9.70855594 -14.5390625 12.7109375 C-15.0335791 13.78408203 -15.5280957 14.85722656 -16.03759766 15.96289062 C-16.82336182 17.65188477 -16.82336182 17.65188477 -17.625 19.375 C-18.16044434 20.52935547 -18.69588867 21.68371094 -19.24755859 22.87304688 C-22.30939729 29.44685958 -25.40212326 36.00343194 -28.625 42.5 C-28.94291504 43.14501465 -29.26083008 43.7900293 -29.58837891 44.45458984 C-30.86992797 47.0000746 -31.96975421 48.96975421 -34 51 C-39.20879368 40.88195987 -44.11689563 30.62318657 -48.96286011 20.32763672 C-49.65534256 18.85696985 -50.3491337 17.38691848 -51.04421997 15.91748047 C-52.0335152 13.8244611 -53.01752182 11.7290389 -54 9.6328125 C-54.30276352 8.9938504 -54.60552704 8.35488831 -54.91746521 7.69656372 C-57 3.22919624 -57 3.22919624 -57 1 C-60.63 1 -64.26 1 -68 1 C-67 -1 -67 -1 -63.6484375 -2.25390625 C-62.22643604 -2.69811496 -60.80179914 -3.1339516 -59.375 -3.5625 C-58.32505859 -3.89411133 -58.32505859 -3.89411133 -57.25390625 -4.23242188 C-37.97327406 -10.15254178 -18.43683987 -7.1573494 0 0 Z " fill="#F7F7F7" transform="translate(105,17)"/>
<path d="M0 0 C3.2175 -0.04125 6.435 -0.0825 9.75 -0.125 C11.26158691 -0.15231201 11.26158691 -0.15231201 12.80371094 -0.18017578 C13.60583008 -0.1851709 14.40794922 -0.19016602 15.234375 -0.1953125 C16.05131836 -0.20578613 16.86826172 -0.21625977 17.70996094 -0.22705078 C20.28793619 0.02854804 21.82603319 0.60161996 24 2 C26.35620437 5.53430656 26.48991613 6.83571287 26 11 C24 14.375 24 14.375 22 17 C22.66 17.94875 23.32 18.8975 24 19.875 C26 23 26 23 26 25 C26.66 25 27.32 25 28 25 C28.13921875 23.80310547 28.13921875 23.80310547 28.28125 22.58203125 C29.19073454 18.04943708 30.78953315 13.97053646 32.5 9.6875 C32.82097656 8.86443359 33.14195312 8.04136719 33.47265625 7.19335938 C35.85681335 1.14318665 35.85681335 1.14318665 37 0 C38.68608966 -0.07205511 40.37500659 -0.08386068 42.0625 -0.0625 C42.98160156 -0.05347656 43.90070313 -0.04445313 44.84765625 -0.03515625 C45.55792969 -0.02355469 46.26820313 -0.01195312 47 0 C57 23.23404255 57 23.23404255 57 29 C53.7 29 50.4 29 47 29 C46.67 27.35 46.34 25.7 46 24 C43.03 24 40.06 24 37 24 C36.505 26.475 36.505 26.475 36 29 C29.73 29 23.46 29 17 29 C12 20.25 12 20.25 12 18 C11.34 18 10.68 18 10 18 C10.01160156 18.71027344 10.02320313 19.42054687 10.03515625 20.15234375 C10.04869141 21.53099609 10.04869141 21.53099609 10.0625 22.9375 C10.07410156 23.85402344 10.08570313 24.77054688 10.09765625 25.71484375 C10 28 10 28 9 29 C6.03 29 3.06 29 0 29 C0 19.43 0 9.86 0 0 Z M10 7 C10 8.32 10 9.64 10 11 C11.65 11 13.3 11 15 11 C15 9.68 15 8.36 15 7 C13.35 7 11.7 7 10 7 Z M41 11 C40.67 12.98 40.34 14.96 40 17 C41.32 16.67 42.64 16.34 44 16 C43.34 14.35 42.68 12.7 42 11 C41.67 11 41.34 11 41 11 Z " fill="#F30D0D" transform="translate(266,15)"/>
<path d="M0 0 C0.763125 0.20625 1.52625 0.4125 2.3125 0.625 C2.6425 2.275 2.9725 3.925 3.3125 5.625 C3.9725 3.645 4.6325 1.665 5.3125 -0.375 C6.3025 -0.375 7.2925 -0.375 8.3125 -0.375 C8.3125 2.925 8.3125 6.225 8.3125 9.625 C8.9725 9.625 9.6325 9.625 10.3125 9.625 C10.3125 6.655 10.3125 3.685 10.3125 0.625 C13.92929659 -0.27919915 16.63136946 -0.45332193 20.3125 -0.375 C21.3025 -0.375 22.2925 -0.375 23.3125 -0.375 C24.98349977 -0.06411632 26.65121537 0.26580332 28.3125 0.625 C28.8075 2.11 28.8075 2.11 29.3125 3.625 C29.9725 2.305 30.6325 0.985 31.3125 -0.375 C32.6325 -0.375 33.9525 -0.375 35.3125 -0.375 C35.8075 0.615 35.8075 0.615 36.3125 1.625 C36.6425 0.965 36.9725 0.305 37.3125 -0.375 C41.74994539 -0.43293591 46.18729389 -0.46857467 50.625 -0.5 C51.88763672 -0.51675781 53.15027344 -0.53351563 54.45117188 -0.55078125 C56.26391602 -0.56044922 56.26391602 -0.56044922 58.11328125 -0.5703125 C59.22872314 -0.58078613 60.34416504 -0.59125977 61.4934082 -0.60205078 C64.3125 -0.375 64.3125 -0.375 67.3125 1.625 C67.5 4.25 67.5 4.25 67.3125 6.625 C67.7765625 5.449375 67.7765625 5.449375 68.25 4.25 C69.3125 1.625 69.3125 1.625 70.3125 -0.375 C71.9625 -0.045 73.6125 0.285 75.3125 0.625 C75.84591184 2.20414015 76.36375763 3.78854387 76.875 5.375 C77.16503906 6.25671875 77.45507812 7.1384375 77.75390625 8.046875 C78.32947435 10.70334316 78.20498371 12.09531106 77.3125 14.625 C75.9925 14.295 74.6725 13.965 73.3125 13.625 C73.3125 12.965 73.3125 12.305 73.3125 11.625 C72.6525 11.625 71.9925 11.625 71.3125 11.625 C70.9825 12.615 70.6525 13.605 70.3125 14.625 C62.64583333 14.625 54.97916667 14.625 47.3125 14.625 C47.3125 11.325 47.3125 8.025 47.3125 4.625 C46.3225 4.625 45.3325 4.625 44.3125 4.625 C44.3125 7.595 44.3125 10.565 44.3125 13.625 C40.40818199 14.6010795 38.31858426 14.625 34.3125 14.625 C33.6525 13.965 32.9925 13.305 32.3125 12.625 C31.6525 13.285 30.9925 13.945 30.3125 14.625 C27.73185871 14.76997985 25.26306116 14.81177545 22.6875 14.75 C21.98109375 14.74097656 21.2746875 14.73195313 20.546875 14.72265625 C18.80193902 14.69907603 17.05717705 14.66320461 15.3125 14.625 C14.9825 13.965 14.6525 13.305 14.3125 12.625 C13.3225 13.285 12.3325 13.945 11.3125 14.625 C8.125 14.25 8.125 14.25 5.3125 13.625 C5.3125 12.965 5.3125 12.305 5.3125 11.625 C4.2296875 12.3984375 4.2296875 12.3984375 3.125 13.1875 C-0.1070366 14.83942982 -1.30358307 14.68851675 -4.6875 13.625 C-5.6875 8.875 -5.6875 8.875 -5.6875 6.625 C-5.749375 5.8 -5.81125 4.975 -5.875 4.125 C-5.813125 3.3 -5.75125 2.475 -5.6875 1.625 C-2.6875 -0.375 -2.6875 -0.375 0 0 Z M51.3125 3.625 C51.3125 3.955 51.3125 4.285 51.3125 4.625 C52.9625 4.625 54.6125 4.625 56.3125 4.625 C56.3125 5.945 56.3125 7.265 56.3125 8.625 C54.6625 8.625 53.0125 8.625 51.3125 8.625 C51.3125 8.955 51.3125 9.285 51.3125 9.625 C53.2925 9.625 55.2725 9.625 57.3125 9.625 C57.3125 7.645 57.3125 5.665 57.3125 3.625 C55.3325 3.625 53.3525 3.625 51.3125 3.625 Z M37.3125 4.625 C37.6425 6.935 37.9725 9.245 38.3125 11.625 C38.6425 11.625 38.9725 11.625 39.3125 11.625 C39.6425 9.315 39.9725 7.005 40.3125 4.625 C39.3225 4.625 38.3325 4.625 37.3125 4.625 Z M27.3125 7.625 C28.3125 10.625 28.3125 10.625 28.3125 10.625 Z " fill="#3A3A3A" transform="translate(287.6875,75.375)"/>
<path d="M0 0 C1.65322266 0.01740234 1.65322266 0.01740234 3.33984375 0.03515625 C4.99693359 0.04869141 4.99693359 0.04869141 6.6875 0.0625 C7.54214844 0.07410156 8.39679688 0.08570313 9.27734375 0.09765625 C10.26734375 3.39765625 11.25734375 6.69765625 12.27734375 10.09765625 C13.94639616 6.75955143 15.15148235 3.6360778 16.27734375 0.09765625 C18.25643773 0.07079072 20.23563346 0.0513225 22.21484375 0.03515625 C23.31699219 0.02355469 24.41914063 0.01195312 25.5546875 0 C28.27734375 0.09765625 28.27734375 0.09765625 29.27734375 1.09765625 C29.37717433 3.08522653 29.40815128 5.07633145 29.41015625 7.06640625 C29.41208984 8.88205078 29.41208984 8.88205078 29.4140625 10.734375 C29.41019531 12.00925781 29.40632813 13.28414062 29.40234375 14.59765625 C29.40814453 16.50998047 29.40814453 16.50998047 29.4140625 18.4609375 C29.41277344 19.67136719 29.41148437 20.88179687 29.41015625 22.12890625 C29.40902832 23.24845703 29.40790039 24.36800781 29.40673828 25.52148438 C29.27734375 28.09765625 29.27734375 28.09765625 28.27734375 29.09765625 C25.60675524 29.23880786 22.95302137 29.14012732 20.27734375 29.09765625 C19.94734375 26.12765625 19.61734375 23.15765625 19.27734375 20.09765625 C18.28734375 23.06765625 17.29734375 26.03765625 16.27734375 29.09765625 C13.96734375 29.09765625 11.65734375 29.09765625 9.27734375 29.09765625 C8.28734375 26.12765625 7.29734375 23.15765625 6.27734375 20.09765625 C6.13296875 21.39703125 5.98859375 22.69640625 5.83984375 24.03515625 C5.40234375 27.97265625 5.40234375 27.97265625 4.27734375 29.09765625 C1.60675524 29.23880786 -1.04697863 29.14012732 -3.72265625 29.09765625 C-3.74731506 25.12834636 -3.76549648 21.15906591 -3.77758789 17.18969727 C-3.78262682 15.83845239 -3.78945802 14.48721299 -3.7980957 13.13598633 C-3.81018044 11.19745191 -3.81535453 9.25887825 -3.8203125 7.3203125 C-3.82554932 6.15250244 -3.83078613 4.98469238 -3.83618164 3.78149414 C-3.68244181 0.14695221 -3.6406551 0.13058304 0 0 Z " fill="#D81818" transform="translate(145.72265625,14.90234375)"/>
<path d="M0 0 C7 0 7 0 10 1 C10.33 0.67 10.66 0.34 11 0 C12.51928038 -0.07179964 14.04167482 -0.08392007 15.5625 -0.0625 C16.38878906 -0.05347656 17.21507812 -0.04445312 18.06640625 -0.03515625 C18.70449219 -0.02355469 19.34257812 -0.01195312 20 0 C20 2.64 20 5.28 20 8 C20.99 5.36 21.98 2.72 23 0 C25.475 0.495 25.475 0.495 28 1 C28.33 1.99 28.66 2.98 29 4 C29.66 2.68 30.32 1.36 31 0 C32.32 0 33.64 0 35 0 C35 3.3 35 6.6 35 10 C36.32 10 37.64 10 39 10 C38.98839844 9.36191406 38.97679687 8.72382812 38.96484375 8.06640625 C38.95582031 7.24011719 38.94679687 6.41382813 38.9375 5.5625 C38.92589844 4.73878906 38.91429687 3.91507813 38.90234375 3.06640625 C39 1 39 1 40 0 C41.34267413 -0.08631874 42.68974322 -0.10706473 44.03515625 -0.09765625 C44.84404297 -0.09443359 45.65292969 -0.09121094 46.48632812 -0.08789062 C47.33646484 -0.07951172 48.18660156 -0.07113281 49.0625 -0.0625 C49.91650391 -0.05798828 50.77050781 -0.05347656 51.65039062 -0.04882812 C53.76695663 -0.03700373 55.88348685 -0.01906769 58 0 C59.57933063 3.65107613 60.06920912 5.19836757 59 9 C59.495 11.475 59.495 11.475 60 14 C48.78 14 37.56 14 26 14 C26 13.34 26 12.68 26 12 C25.34 12 24.68 12 24 12 C24 12.66 24 13.32 24 14 C16 14 8 14 0 14 C0 9.38 0 4.76 0 0 Z M44 4 C44 4.33 44 4.66 44 5 C45.65 5 47.3 5 49 5 C49 4.67 49 4.34 49 4 C47.35 4 45.7 4 44 4 Z M5 5 C5 6.65 5 8.3 5 10 C5.33 10 5.66 10 6 10 C6 8.35 6 6.7 6 5 C5.67 5 5.34 5 5 5 Z M30 9 C31 11 31 11 31 11 Z M44 9 C44 9.33 44 9.66 44 10 C45.65 10 47.3 10 49 10 C49 9.67 49 9.34 49 9 C47.35 9 45.7 9 44 9 Z " fill="#2D2D2D" transform="translate(187,50)"/>
<path d="M0 0 C8.09612067 3.23844827 13.55147209 9.21158795 17.1484375 17.1640625 C19.36922759 24.55990471 19.19435585 32.31264862 16 39.375 C12.03575773 46.19980345 7.33425642 51.06629743 0 54 C0 36.18 0 18.36 0 0 Z " fill="#F4F4F4" transform="translate(110,21)"/>
<path d="M0 0 C4.46015213 1.40319393 6.04937487 5.46335436 8.21875 9.359375 C8.82009766 10.55046875 8.82009766 10.55046875 9.43359375 11.765625 C9.52447266 10.70021484 9.52447266 10.70021484 9.6171875 9.61328125 C9.70097656 8.69417969 9.78476562 7.77507813 9.87109375 6.828125 C9.95230469 5.91160156 10.03351563 4.99507812 10.1171875 4.05078125 C10.43359375 1.765625 10.43359375 1.765625 11.43359375 0.765625 C12.95287413 0.69382536 14.47526857 0.68170493 15.99609375 0.703125 C16.82238281 0.71214844 17.64867187 0.72117187 18.5 0.73046875 C19.13808594 0.74207031 19.77617187 0.75367188 20.43359375 0.765625 C20.45825256 4.73493489 20.47643398 8.70421534 20.48852539 12.67358398 C20.49356432 14.02482886 20.50039552 15.37606826 20.5090332 16.72729492 C20.52111794 18.66582934 20.52629203 20.604403 20.53125 22.54296875 C20.53910522 24.29468384 20.53910522 24.29468384 20.54711914 26.08178711 C20.43359375 28.765625 20.43359375 28.765625 19.43359375 29.765625 C16.24940425 30.55142284 13.59628767 30.67432839 10.43359375 29.765625 C7.52628822 26.75279114 5.46057512 23.41549499 3.43359375 19.765625 C3.37300781 20.40371094 3.31242187 21.04179688 3.25 21.69921875 C3.16621094 22.52550781 3.08242188 23.35179688 2.99609375 24.203125 C2.91488281 25.02683594 2.83367187 25.85054687 2.75 26.69921875 C2.43359375 28.765625 2.43359375 28.765625 1.43359375 29.765625 C-0.08568663 29.83742464 -1.60808107 29.84954507 -3.12890625 29.828125 C-3.95519531 29.81910156 -4.78148437 29.81007813 -5.6328125 29.80078125 C-6.58994141 29.78337891 -6.58994141 29.78337891 -7.56640625 29.765625 C-7.59106506 25.79631511 -7.60924648 21.82703466 -7.62133789 17.85766602 C-7.62637682 16.50642114 -7.63320802 15.15518174 -7.6418457 13.80395508 C-7.65393044 11.86542066 -7.65910453 9.926847 -7.6640625 7.98828125 C-7.66929932 6.82047119 -7.67453613 5.65266113 -7.67993164 4.44946289 C-7.47377693 -0.42421191 -4.2663183 0.02730444 0 0 Z " fill="#E81313" transform="translate(435.56640625,14.234375)"/>
<path d="M0 0 C4.91887551 1.41328847 7.07613126 6.45427022 9.43359375 10.69921875 C9.52447266 9.74208984 9.52447266 9.74208984 9.6171875 8.765625 C9.70097656 7.93933594 9.78476563 7.11304688 9.87109375 6.26171875 C9.95230469 5.43800781 10.03351563 4.61429688 10.1171875 3.765625 C10.43359375 1.69921875 10.43359375 1.69921875 11.43359375 0.69921875 C12.95287413 0.62741911 14.47526857 0.61529868 15.99609375 0.63671875 C16.82238281 0.64574219 17.64867187 0.65476562 18.5 0.6640625 C19.13808594 0.67566406 19.77617187 0.68726563 20.43359375 0.69921875 C20.45825256 4.66852864 20.47643398 8.63780909 20.48852539 12.60717773 C20.49356432 13.95842261 20.50039552 15.30966201 20.5090332 16.66088867 C20.52111794 18.59942309 20.52629203 20.53799675 20.53125 22.4765625 C20.53910522 24.22827759 20.53910522 24.22827759 20.54711914 26.01538086 C20.43359375 28.69921875 20.43359375 28.69921875 19.43359375 29.69921875 C14.51417499 30.73488586 14.51417499 30.73488586 11.43359375 29.69921875 C8.27054409 26.33814398 5.83361631 22.6311706 3.43359375 18.69921875 C3.37300781 19.40949219 3.31242188 20.11976562 3.25 20.8515625 C3.16621094 21.77066406 3.08242187 22.68976562 2.99609375 23.63671875 C2.91488281 24.55324219 2.83367187 25.46976563 2.75 26.4140625 C2.43359375 28.69921875 2.43359375 28.69921875 1.43359375 29.69921875 C-0.37890625 29.83203125 -0.37890625 29.83203125 -2.56640625 29.82421875 C-3.28828125 29.82679687 -4.01015625 29.829375 -4.75390625 29.83203125 C-6.56640625 29.69921875 -6.56640625 29.69921875 -7.56640625 28.69921875 C-7.66623683 26.71164847 -7.69721378 24.72054355 -7.69921875 22.73046875 C-7.70050781 21.52003906 -7.70179688 20.30960938 -7.703125 19.0625 C-7.69925781 17.78761719 -7.69539062 16.51273438 -7.69140625 15.19921875 C-7.69527344 13.92433594 -7.69914063 12.64945313 -7.703125 11.3359375 C-7.70183594 10.12550781 -7.70054687 8.91507813 -7.69921875 7.66796875 C-7.69809082 6.54841797 -7.69696289 5.42886719 -7.69580078 4.27539062 C-7.45486421 -0.52152022 -4.1607427 0.01997156 0 0 Z " fill="#D71414" transform="translate(212.56640625,14.30078125)"/>
<path d="M0 0 C0 17.82 0 35.64 0 54 C-8.54475824 49.72762088 -13.31931973 43.74431487 -17.3125 35.1875 C-19.06499798 27.06228211 -18.5982436 20.5827985 -14.48828125 13.2890625 C-5.84812287 0 -5.84812287 0 0 0 Z " fill="#F9F9F9" transform="translate(31,21)"/>
<path d="M0 0 C1.65322266 0.01740234 1.65322266 0.01740234 3.33984375 0.03515625 C4.99693359 0.04869141 4.99693359 0.04869141 6.6875 0.0625 C7.54214844 0.07410156 8.39679688 0.08570313 9.27734375 0.09765625 C9.60734375 0.75765625 9.93734375 1.41765625 10.27734375 2.09765625 C10.93734375 1.43765625 11.59734375 0.77765625 12.27734375 0.09765625 C14.77734375 -0.02734375 14.77734375 -0.02734375 17.27734375 0.09765625 C17.93734375 0.09765625 18.59734375 0.09765625 19.27734375 0.09765625 C23.61067708 0.09765625 27.94401042 0.09765625 32.27734375 0.09765625 C33.51484375 0.03578125 33.51484375 0.03578125 34.77734375 -0.02734375 C37.27734375 0.09765625 37.27734375 0.09765625 39.27734375 2.09765625 C39.93734375 1.43765625 40.59734375 0.77765625 41.27734375 0.09765625 C47.30343071 -0.45016984 47.30343071 -0.45016984 50.27734375 1.22265625 C51.76612342 4.01411814 50.88572161 6.05576696 50.27734375 9.09765625 C50.56385307 10.77300735 50.89024097 12.44265162 51.27734375 14.09765625 C46.94401042 14.09765625 42.61067708 14.09765625 38.27734375 14.09765625 C37.49359375 14.32453125 36.70984375 14.55140625 35.90234375 14.78515625 C33.27734375 15.09765625 33.27734375 15.09765625 30.96484375 14.09765625 C28.5004775 11.17692588 28.99863007 8.79061245 29.27734375 5.09765625 C28.61734375 5.09765625 27.95734375 5.09765625 27.27734375 5.09765625 C27.27734375 8.06765625 27.27734375 11.03765625 27.27734375 14.09765625 C25.62734375 14.09765625 23.97734375 14.09765625 22.27734375 14.09765625 C22.27734375 11.12765625 22.27734375 8.15765625 22.27734375 5.09765625 C21.61734375 5.09765625 20.95734375 5.09765625 20.27734375 5.09765625 C20.31859375 6.02578125 20.35984375 6.95390625 20.40234375 7.91015625 C20.27734375 11.09765625 20.27734375 11.09765625 18.27734375 14.09765625 C15.83984375 14.91015625 15.83984375 14.91015625 13.27734375 15.09765625 C12.28734375 14.43765625 11.29734375 13.77765625 10.27734375 13.09765625 C8.60353356 13.39303452 6.9382242 13.73659528 5.27734375 14.09765625 C2.27547376 14.19351428 -0.72017212 14.15652849 -3.72265625 14.09765625 C-3.74951563 11.95188988 -3.76898713 9.8060298 -3.78515625 7.66015625 C-3.79675781 6.46519531 -3.80835938 5.27023438 -3.8203125 4.0390625 C-3.69060839 0.13237476 -3.69060839 0.13237476 0 0 Z M14.27734375 4.09765625 C12.98100754 5.1641074 12.98100754 5.1641074 13.21484375 7.66015625 C13.23546875 8.46453125 13.25609375 9.26890625 13.27734375 10.09765625 C13.93734375 10.09765625 14.59734375 10.09765625 15.27734375 10.09765625 C15.27734375 8.11765625 15.27734375 6.13765625 15.27734375 4.09765625 C14.94734375 4.09765625 14.61734375 4.09765625 14.27734375 4.09765625 Z M34.27734375 4.09765625 C33.94734375 5.74765625 33.61734375 7.39765625 33.27734375 9.09765625 C34.26734375 9.59265625 34.26734375 9.59265625 35.27734375 10.09765625 C35.27734375 8.11765625 35.27734375 6.13765625 35.27734375 4.09765625 C34.94734375 4.09765625 34.61734375 4.09765625 34.27734375 4.09765625 Z " fill="#1C1C1C" transform="translate(254.72265625,49.90234375)"/>
<path d="M0 0 C1.32 0 2.64 0 4 0 C4 1.65 4 3.3 4 5 C4.66 5 5.32 5 6 5 C6 3.35 6 1.7 6 0 C7.32 0 8.64 0 10 0 C10.33 0.66 10.66 1.32 11 2 C11.99 1.34 12.98 0.68 14 0 C16.5625 -0.25 16.5625 -0.25 19 0 C19.66 0.66 20.32 1.32 21 2 C21.33 1.34 21.66 0.68 22 0 C23.3303125 0.2784375 23.3303125 0.2784375 24.6875 0.5625 C27.94382187 0.99258025 29.84416593 0.69274406 33 0 C39.496 -0.336 39.496 -0.336 43 2 C43 2.99 43 3.98 43 5 C43.66 5 44.32 5 45 5 C45.33 3.35 45.66 1.7 46 0 C48.475 0.495 48.475 0.495 51 1 C51.50757862 2.41396902 52.00574925 3.83131729 52.5 5.25 C52.7784375 6.03890625 53.056875 6.8278125 53.34375 7.640625 C54 10 54 10 54 14 C52.35 14 50.7 14 49 14 C49 13.34 49 12.68 49 12 C48.34 12 47.68 12 47 12 C47 12.66 47 13.32 47 14 C45.34385343 14.38218767 43.67542976 14.71395102 42 15 C41.505 14.505 41.505 14.505 41 14 C38.8553058 13.92705122 36.70833021 13.91634724 34.5625 13.9375 C32.80099609 13.95103516 32.80099609 13.95103516 31.00390625 13.96484375 C30.01261719 13.97644531 29.02132813 13.98804688 28 14 C26 14 24 14 22 14 C21.67 13.34 21.34 12.68 21 12 C20.443125 12.515625 19.88625 13.03125 19.3125 13.5625 C17 15 17 15 14.3125 14.8125 C12 14 12 14 11 12 C10.67 12.66 10.34 13.32 10 14 C8.68 14 7.36 14 6 14 C6 12.35 6 10.7 6 9 C5.34 9 4.68 9 4 9 C4 10.65 4 12.3 4 14 C2.35 14 0.7 14 -1 14 C-1.02685938 11.85423363 -1.04633088 9.70837355 -1.0625 7.5625 C-1.07410156 6.36753906 -1.08570313 5.17257813 -1.09765625 3.94140625 C-1 1 -1 1 0 0 Z M14 5 C14.33 6.65 14.66 8.3 15 10 C15.66 10 16.32 10 17 10 C17 8.35 17 6.7 17 5 C16.01 5 15.02 5 14 5 Z M38 5 C38 6.65 38 8.3 38 10 C38.33 10 38.66 10 39 10 C39 8.35 39 6.7 39 5 C38.67 5 38.34 5 38 5 Z " fill="#212121" transform="translate(434,50)"/>
<path d="M0 0 C1.1034375 -0.01933594 2.206875 -0.03867188 3.34375 -0.05859375 C7.1508147 0.53979389 8.79810066 1.73560066 11.5 4.4375 C12.3125 7.1875 12.3125 7.1875 12.5 9.4375 C9.2 9.7675 5.9 10.0975 2.5 10.4375 C2.17 9.7775 1.84 9.1175 1.5 8.4375 C-0.48 8.7675 -2.46 9.0975 -4.5 9.4375 C-4.5 13.3975 -4.5 17.3575 -4.5 21.4375 C-1.53 21.4375 1.44 21.4375 4.5 21.4375 C4.5 20.7775 4.5 20.1175 4.5 19.4375 C2.52 19.4375 0.54 19.4375 -1.5 19.4375 C-1.5 17.1275 -1.5 14.8175 -1.5 12.4375 C3.45 12.4375 8.4 12.4375 13.5 12.4375 C13.5 16.7275 13.5 21.0175 13.5 25.4375 C6.67498751 29.01783442 1.21998036 30.44713061 -6.5 29.4375 C-9.4375 28.25 -9.4375 28.25 -11.5 26.4375 C-12.263125 25.798125 -13.02625 25.15875 -13.8125 24.5 C-16.48875778 19.64308774 -16.2265919 14.85391237 -15.5 9.4375 C-12.18943253 2.44852422 -7.59275448 0.00887004 0 0 Z " fill="#DA1414" transform="translate(474.5,14.5625)"/>
<path d="M0 0 C3.5625 0.1875 3.5625 0.1875 5.5625 2.1875 C5.6875 4.8125 5.6875 4.8125 5.5625 7.1875 C6.8825 4.8775 8.2025 2.5675 9.5625 0.1875 C10.8825 0.1875 12.2025 0.1875 13.5625 0.1875 C14.2225 2.4975 14.8825 4.8075 15.5625 7.1875 C15.8925 4.8775 16.2225 2.5675 16.5625 0.1875 C23.1875 -0.0625 23.1875 -0.0625 26.5625 2.1875 C26.2325 4.8275 25.9025 7.4675 25.5625 10.1875 C26.2225 10.1875 26.8825 10.1875 27.5625 10.1875 C27.748125 8.269375 27.748125 8.269375 27.9375 6.3125 C28.3125 2.4375 28.3125 2.4375 30.5625 0.1875 C32.23792976 0.47354898 33.90635343 0.80531233 35.5625 1.1875 C35.8925 0.8575 36.2225 0.5275 36.5625 0.1875 C38.24858966 0.11544489 39.93750659 0.10363932 41.625 0.125 C42.54410156 0.13402344 43.46320313 0.14304687 44.41015625 0.15234375 C45.12042969 0.16394531 45.83070313 0.17554687 46.5625 0.1875 C46.5625 1.8375 46.5625 3.4875 46.5625 5.1875 C45.5725 5.1875 44.5825 5.1875 43.5625 5.1875 C43.5625 8.1575 43.5625 11.1275 43.5625 14.1875 C41.9125 14.5175 40.2625 14.8475 38.5625 15.1875 C38.5625 11.8875 38.5625 8.5875 38.5625 5.1875 C37.5725 5.1875 36.5825 5.1875 35.5625 5.1875 C35.913125 5.909375 36.26375 6.63125 36.625 7.375 C37.66659017 10.4997705 37.45346572 12.06911996 36.5625 15.1875 C35.5725 15.1875 34.5825 15.1875 33.5625 15.1875 C33.5625 14.5275 33.5625 13.8675 33.5625 13.1875 C33.046875 13.5175 32.53125 13.8475 32 14.1875 C28.78223488 15.50760877 26.0054472 15.31992105 22.5625 15.1875 C22.2325 14.5275 21.9025 13.8675 21.5625 13.1875 C20.9025 13.8475 20.2425 14.5075 19.5625 15.1875 C15.9375 15.3125 15.9375 15.3125 12.5625 15.1875 C12.5625 14.5275 12.5625 13.8675 12.5625 13.1875 C12.04171875 13.51492187 11.5209375 13.84234375 10.984375 14.1796875 C7.81537991 15.49839836 5.2326381 15.38090276 1.8125 15.3125 C0.64203125 15.29445313 -0.5284375 15.27640625 -1.734375 15.2578125 C-3.07242187 15.22300781 -3.07242187 15.22300781 -4.4375 15.1875 C-4.46435412 12.87506208 -4.48382841 10.5625373 -4.5 8.25 C-4.51160156 6.96222656 -4.52320313 5.67445312 -4.53515625 4.34765625 C-4.4082339 0.24044912 -4.4082339 0.24044912 0 0 Z " fill="#191919" transform="translate(374.4375,74.8125)"/>
<path d="M0 0 C1.68222656 -0.05607422 1.68222656 -0.05607422 3.3984375 -0.11328125 C7.29129115 0.40042462 8.88474363 1.5522052 11.625 4.3125 C12.4375 7.0625 12.4375 7.0625 12.625 9.3125 C9.325 9.6425 6.025 9.9725 2.625 10.3125 C2.625 9.6525 2.625 8.9925 2.625 8.3125 C0.645 8.3125 -1.335 8.3125 -3.375 8.3125 C-5.60423777 12.63984391 -5.29970553 15.59650182 -4.375 20.3125 C-0.27276415 21.32790112 -0.27276415 21.32790112 3.625 20.3125 C1.975 19.9825 0.325 19.6525 -1.375 19.3125 C-1.375 17.0025 -1.375 14.6925 -1.375 12.3125 C3.245 12.3125 7.865 12.3125 12.625 12.3125 C12.625 16.6025 12.625 20.8925 12.625 25.3125 C6.23766983 29.16900124 1.07687559 30.3897458 -6.375 29.3125 C-10.6401529 28.00431336 -12.94492653 25.9844898 -15.375 22.1875 C-16.95766 17.54901219 -16.74236675 12.98246841 -15.375 8.3125 C-11.39115369 1.73618057 -7.6124865 0.16548884 0 0 Z " fill="#D81212" transform="translate(380.375,14.6875)"/>
<path d="M0 0 C7.92 0 15.84 0 24 0 C24 2.31 24 4.62 24 7 C19.38 7 14.76 7 10 7 C10 7.99 10 8.98 10 10 C14.29 10 18.58 10 23 10 C23 12.31 23 14.62 23 17 C18.71 17 14.42 17 10 17 C10 18.32 10 19.64 10 21 C14.95 21 19.9 21 25 21 C25 23.31 25 25.62 25 28 C24 29 24 29 21.68334961 29.11352539 C20.68311768 29.10828857 19.68288574 29.10305176 18.65234375 29.09765625 C17.68031006 29.09515869 16.70827637 29.09266113 15.70678711 29.09008789 C14.46292236 29.08098389 13.21905762 29.07187988 11.9375 29.0625 C7.998125 29.041875 4.05875 29.02125 0 29 C0 19.43 0 9.86 0 0 Z " fill="#F90302" transform="translate(178,15)"/>
<path d="M0 0 C0.825 0.0825 1.65 0.165 2.5 0.25 C4.68789679 0.25 6.87594878 0.2017211 9.0625 0.125 C12.5 0.25 12.5 0.25 14.5 2.25 C15.16 1.59 15.82 0.93 16.5 0.25 C19.125 0.625 19.125 0.625 21.5 1.25 C21.83 2.24 22.16 3.23 22.5 4.25 C23.16 2.93 23.82 1.61 24.5 0.25 C30.83333333 0.25 37.16666667 0.25 43.5 0.25 C43.48839844 0.84167969 43.47679687 1.43335938 43.46484375 2.04296875 C43.45582031 2.83316406 43.44679688 3.62335937 43.4375 4.4375 C43.42589844 5.21480469 43.41429687 5.99210937 43.40234375 6.79296875 C43.45337665 9.69729619 43.45337665 9.69729619 44.5 14.25 C36.25 14.25 28 14.25 19.5 14.25 C19.5 13.59 19.5 12.93 19.5 12.25 C18.84 12.25 18.18 12.25 17.5 12.25 C17.5 12.91 17.5 13.57 17.5 14.25 C15.85 14.58 14.2 14.91 12.5 15.25 C12.83 13.27 13.16 11.29 13.5 9.25 C12.18 9.58 10.86 9.91 9.5 10.25 C9.5 11.57 9.5 12.89 9.5 14.25 C7.75285767 14.50002209 6.00200859 14.72423194 4.25 14.9375 C3.27546875 15.06511719 2.3009375 15.19273438 1.296875 15.32421875 C-1.98272731 15.2371902 -3.13310671 14.44219402 -5.5 12.25 C-5.314375 11.6725 -5.12875 11.095 -4.9375 10.5 C-4.31939452 8.2718238 -4.31939452 8.2718238 -5.125 6.25 C-5.5 4.25 -5.5 4.25 -4.375 2 C-2.5 0.25 -2.5 0.25 0 0 Z M28.5 4.25 C29.5 6.25 29.5 6.25 29.5 6.25 Z M33.5 6.25 C33.17 7.24 32.84 8.23 32.5 9.25 C33.16 9.91 33.82 10.57 34.5 11.25 C34.5 9.6 34.5 7.95 34.5 6.25 C34.17 6.25 33.84 6.25 33.5 6.25 Z M-0.5 9.25 C0.5 11.25 0.5 11.25 0.5 11.25 Z M23.5 9.25 C24.5 11.25 24.5 11.25 24.5 11.25 Z " fill="#363636" transform="translate(331.5,49.75)"/>
<path d="M0 0 C3.3 0 6.6 0 10 0 C10.33 6.6 10.66 13.2 11 20 C12.65 20 14.3 20 16 20 C16.02505615 19.42967041 16.0501123 18.85934082 16.07592773 18.27172852 C16.19156549 15.70173843 16.31443624 13.13214473 16.4375 10.5625 C16.47681641 9.66466797 16.51613281 8.76683594 16.55664062 7.84179688 C16.59853516 6.98779297 16.64042969 6.13378906 16.68359375 5.25390625 C16.72025146 4.46314697 16.75690918 3.6723877 16.79467773 2.85766602 C17 1 17 1 18 0 C19.51928038 -0.07179964 21.04167482 -0.08392007 22.5625 -0.0625 C23.38878906 -0.05347656 24.21507812 -0.04445313 25.06640625 -0.03515625 C25.70449219 -0.02355469 26.34257812 -0.01195312 27 0 C27.14601614 3.54122827 27.2343056 7.08167644 27.3125 10.625 C27.35439453 11.62402344 27.39628906 12.62304688 27.43945312 13.65234375 C27.57762626 21.99800105 27.57762626 21.99800105 24.66796875 25.6484375 C20.26269457 29.53127068 16.28918631 29.27811806 10.6640625 29.21875 C6.38243883 28.86717973 4.19975252 27.33228863 1.39331055 24.21582031 C-0.30426266 21.51612267 -0.34820337 19.96365962 -0.29296875 16.796875 C-0.28330078 15.8171875 -0.27363281 14.8375 -0.26367188 13.828125 C-0.2259668 12.30445313 -0.2259668 12.30445313 -0.1875 10.75 C-0.17396484 9.71875 -0.16042969 8.6875 -0.14648438 7.625 C-0.11118034 5.08310951 -0.05737473 2.5414881 0 0 Z " fill="#DD1414" transform="translate(397,15)"/>
<path d="M0 0 C1.37478516 0.01740234 1.37478516 0.01740234 2.77734375 0.03515625 C3.69644531 0.04417969 4.61554688 0.05320312 5.5625 0.0625 C6.27277344 0.07410156 6.98304688 0.08570313 7.71484375 0.09765625 C17.71484375 23.3316988 17.71484375 23.3316988 17.71484375 29.09765625 C14.41484375 29.09765625 11.11484375 29.09765625 7.71484375 29.09765625 C7.38484375 27.44765625 7.05484375 25.79765625 6.71484375 24.09765625 C3.74484375 24.09765625 0.77484375 24.09765625 -2.28515625 24.09765625 C-2.61515625 25.74765625 -2.94515625 27.39765625 -3.28515625 29.09765625 C-9.55515625 29.09765625 -15.82515625 29.09765625 -22.28515625 29.09765625 C-26.2890625 22.26171875 -26.2890625 22.26171875 -27.28515625 20.09765625 C-26.95515625 19.43765625 -26.62515625 18.77765625 -26.28515625 18.09765625 C-22.28515625 24.84765625 -22.28515625 24.84765625 -22.28515625 27.09765625 C-19.31515625 27.09765625 -16.34515625 27.09765625 -13.28515625 27.09765625 C-13.28515625 26.43765625 -13.28515625 25.77765625 -13.28515625 25.09765625 C-12.62515625 25.09765625 -11.96515625 25.09765625 -11.28515625 25.09765625 C-11.1459375 23.90076172 -11.1459375 23.90076172 -11.00390625 22.6796875 C-10.09442171 18.14709333 -8.4956231 14.06819271 -6.78515625 9.78515625 C-6.46417969 8.96208984 -6.14320313 8.13902344 -5.8125 7.29101562 C-2.98971893 0.12776577 -2.98971893 0.12776577 0 0 Z M1.71484375 11.09765625 C1.38484375 13.07765625 1.05484375 15.05765625 0.71484375 17.09765625 C2.03484375 16.76765625 3.35484375 16.43765625 4.71484375 16.09765625 C4.05484375 14.44765625 3.39484375 12.79765625 2.71484375 11.09765625 C2.38484375 11.09765625 2.05484375 11.09765625 1.71484375 11.09765625 Z " fill="#D31414" transform="translate(305.28515625,14.90234375)"/>
<path d="M0 0 C6.0546875 -0.1953125 6.0546875 -0.1953125 8 0 C8.66 0.66 9.32 1.32 10 2 C10.66 1.34 11.32 0.68 12 0 C13.32 0 14.64 0 16 0 C16.66 1.65 17.32 3.3 18 5 C18.33 3.35 18.66 1.7 19 0 C28.24 0 37.48 0 47 0 C49 5 49 5 49 7 C49.0825 7.804375 49.165 8.60875 49.25 9.4375 C49 12 49 12 47.3125 13.875 C44.42729162 15.27861489 43.01268757 14.92054342 40 14 C39.29925156 10.846632 39 8.27275026 39 5 C38.01 5 37.02 5 36 5 C36 7.97 36 10.94 36 14 C34.68 14 33.36 14 32 14 C32 11.03 32 8.06 32 5 C31.01 5 30.02 5 29 5 C29.33 7.97 29.66 10.94 30 14 C25.05 14 20.1 14 15 14 C15 13.34 15 12.68 15 12 C11.535 13.485 11.535 13.485 8 15 C8 13.02 8 11.04 8 9 C7.01 9.495 7.01 9.495 6 10 C5.34786708 12.02463255 5.34786708 12.02463255 5 14 C3.35 14 1.7 14 0 14 C0 9.38 0 4.76 0 0 Z " fill="#232323" transform="translate(380,50)"/>
<path d="M0 0 C0.90492188 0.02320313 1.80984375 0.04640625 2.7421875 0.0703125 C3.65226562 0.08835937 4.56234375 0.10640625 5.5 0.125 C6.19867188 0.14820313 6.89734375 0.17140625 7.6171875 0.1953125 C9.31986845 4.46025007 11.00170195 8.73310501 12.6796875 13.0078125 C13.40768555 14.83022461 13.40768555 14.83022461 14.15039062 16.68945312 C14.83198242 18.43452148 14.83198242 18.43452148 15.52734375 20.21484375 C16.16361694 21.82516479 16.16361694 21.82516479 16.81274414 23.46801758 C17.6171875 26.1953125 17.6171875 26.1953125 16.6171875 29.1953125 C13.6471875 29.1953125 10.6771875 29.1953125 7.6171875 29.1953125 C7.1221875 26.7203125 7.1221875 26.7203125 6.6171875 24.1953125 C3.6471875 24.1953125 0.6771875 24.1953125 -2.3828125 24.1953125 C-2.7128125 25.8453125 -3.0428125 27.4953125 -3.3828125 29.1953125 C-6.6828125 29.1953125 -9.9828125 29.1953125 -13.3828125 29.1953125 C-11.55335782 22.79222112 -9.50337936 16.48506652 -7.3203125 10.1953125 C-7.0629834 9.4412915 -6.8056543 8.68727051 -6.54052734 7.91040039 C-3.87615622 0.31771772 -3.87615622 0.31771772 0 0 Z M1.6171875 11.1953125 C1.2871875 13.1753125 0.9571875 15.1553125 0.6171875 17.1953125 C1.6071875 17.1953125 2.5971875 17.1953125 3.6171875 17.1953125 C3.2871875 15.2153125 2.9571875 13.2353125 2.6171875 11.1953125 C2.2871875 11.1953125 1.9571875 11.1953125 1.6171875 11.1953125 Z " fill="#E31313" transform="translate(347.3828125,14.8046875)"/>
<path d="M0 0 C3.3 0 6.6 0 10 0 C12.8417088 5.24623163 15.11740599 10.62377106 17.25 16.1875 C17.52021973 16.87650391 17.79043945 17.56550781 18.06884766 18.27539062 C19.54584096 22.20010853 20 24.70171321 20 29 C16.7 29 13.4 29 10 29 C9.505 26.525 9.505 26.525 9 24 C6.36 24 3.72 24 1 24 C0.01 26.475 0.01 26.475 -1 29 C-3.97 29 -6.94 29 -10 29 C-8.66634251 22.10007732 -6.56639723 15.9187269 -3.875 9.4375 C-3.50246094 8.52419922 -3.12992188 7.61089844 -2.74609375 6.66992188 C-1.8370824 4.44400948 -0.91944049 2.22162481 0 0 Z M5 12 C4.34 13.65 3.68 15.3 3 17 C4.32 16.67 5.64 16.34 7 16 C6.34 14.68 5.68 13.36 5 12 Z " fill="#E71313" transform="translate(244,15)"/>
<path d="M0 0 C1.65 0 3.3 0 5 0 C5 0.66 5 1.32 5 2 C5.66 2 6.32 2 7 2 C7 1.34 7 0.68 7 0 C8.65 0 10.3 0 12 0 C12.33 1.98 12.66 3.96 13 6 C13.99 4.02 14.98 2.04 16 0 C17.32 0 18.64 0 20 0 C20.66 1.98 21.32 3.96 22 6 C22.33 4.02 22.66 2.04 23 0 C28.33333333 0 33.66666667 0 39 0 C39 4.62 39 9.24 39 14 C32.4 14 25.8 14 19 14 C19 13.34 19 12.68 19 12 C18.01 12 17.02 12 16 12 C16 12.66 16 13.32 16 14 C12.45049966 15.16306443 9.44176052 14.92365049 5.75 14.5625 C2.90375 14.2840625 2.90375 14.2840625 0 14 C0 9.38 0 4.76 0 0 Z " fill="#242424" transform="translate(143,50)"/>
<path d="M0 0 C0.7425 0.185625 1.485 0.37125 2.25 0.5625 C4.84110775 1.17007453 4.84110775 1.17007453 6.6875 0.53125 C10.02803313 -0.23616977 13.34327618 -0.10435956 16.75 -0.0625 C17.44738281 -0.05798828 18.14476562 -0.05347656 18.86328125 -0.04882812 C20.57555803 -0.0371002 22.28779033 -0.01916653 24 0 C24 3.3 24 6.6 24 10 C25.65 10 27.3 10 29 10 C29.185625 8.3603125 29.185625 8.3603125 29.375 6.6875 C30 3 30 3 32 0 C33.32 0 34.64 0 36 0 C36.53532823 1.55759343 37.05265378 3.12138045 37.5625 4.6875 C37.85253906 5.55761719 38.14257812 6.42773438 38.44140625 7.32421875 C39.05141961 10.24631074 38.77703633 12.14400553 38 15 C37.01 15 36.02 15 35 15 C35 14.34 35 13.68 35 13 C34.51660156 13.32742187 34.03320312 13.65484375 33.53515625 13.9921875 C29.8386438 15.46167935 26.37445788 15.21138051 22.4375 15.125 C21.28604492 15.11146484 21.28604492 15.11146484 20.11132812 15.09765625 C18.07411043 15.07279047 16.03703345 15.0369996 14 15 C13.01 15 12.02 15 11 15 C10.01 15 9.02 15 8 15 C7.67 14.34 7.34 13.68 7 13 C6.34 13.66 5.68 14.32 5 15 C4.01 15 3.02 15 2 15 C0.53329887 9.77487721 -0.22577402 5.4185766 0 0 Z " fill="#2A2A2A" transform="translate(209,75)"/>
<path d="M0 0 C0.33 0 0.66 0 1 0 C1 16.17 1 32.34 1 49 C2.98 49 4.96 49 7 49 C6.67 49.66 6.34 50.32 6 51 C1.81087837 51.9004654 -1.10224887 51.86414185 -5 50 C-7.24901625 47.1577694 -8.78165048 44.08668964 -10.3125 40.8125 C-10.71525146 39.96196045 -11.11800293 39.1114209 -11.53295898 38.23510742 C-14.23220125 31.91857552 -14.23220125 31.91857552 -13.26293945 28.08422852 C-11.99300941 24.98292826 -10.64101306 21.96123972 -9.1796875 18.9453125 C-8.37724609 17.28242187 -8.37724609 17.28242187 -7.55859375 15.5859375 C-7.00300781 14.44382812 -6.44742188 13.30171875 -5.875 12.125 C-5.31167969 10.9596875 -4.74835938 9.794375 -4.16796875 8.59375 C-2.78187239 5.72758466 -1.39245478 2.86308022 0 0 Z " fill="#BBBBBB" transform="translate(99,28)"/>
<path d="M0 0 C0.66 0.33 1.32 0.66 2 1 C0.68 1.99 -0.64 2.98 -2 4 C-1.67 4.33 -1.34 4.66 -1 5 C-0.90634994 6.7492872 -0.88255562 8.50236254 -0.88647461 10.25415039 C-0.88655014 11.37523697 -0.88662567 12.49632355 -0.88670349 13.65138245 C-0.89186478 14.8711528 -0.89702606 16.09092316 -0.90234375 17.34765625 C-0.9037587 18.58921982 -0.90517365 19.83078339 -0.90663147 21.10997009 C-0.91129409 24.41605491 -0.92028503 27.72207146 -0.93133545 31.02813721 C-0.94155173 34.3996115 -0.94612955 37.77109283 -0.95117188 41.14257812 C-0.96222605 47.76173775 -0.97898264 54.38086493 -1 61 C-1.66 60.67 -2.32 60.34 -3 60 C-3 42.51 -3 25.02 -3 7 C-10.69224355 12.50200005 -10.69224355 12.50200005 -15.5 19.25 C-15.9640625 20.08015625 -16.428125 20.9103125 -16.90625 21.765625 C-19.84381705 27.76665484 -19.92086986 34.21666719 -18.3515625 40.6640625 C-16.09616356 46.89050573 -12.63132956 51.33620785 -8 56 C-7.2575 56.763125 -6.515 57.52625 -5.75 58.3125 C-5.1725 58.869375 -4.595 59.42625 -4 60 C-3.484375 60.556875 -2.96875 61.11375 -2.4375 61.6875 C-0.91856078 63.25277889 -0.91856078 63.25277889 2 64 C2 63.34 2 62.68 2 62 C3.98 62 5.96 62 8 62 C8 45.83 8 29.66 8 13 C8.66 13.33 9.32 13.66 10 14 C9.67 30.17 9.34 46.34 9 63 C7.02 63.495 7.02 63.495 5 64 C6.485 64.99 6.485 64.99 8 66 C1.90190908 67.4710307 -0.86364471 66.08740829 -6.11328125 63.0078125 C-15.52653413 56.4605703 -22.60587375 48.37209968 -25 37 C-26.00939513 28.49224103 -22.96165934 21.17243791 -18.05078125 14.25390625 C-12.99293451 8.28800804 -7.107642 3.36549886 0 0 Z " fill="#1E1E1E" transform="translate(33,15)"/>
<path d="M0 0 C4.43744539 -0.05793591 8.87479389 -0.09357467 13.3125 -0.125 C14.57513672 -0.14175781 15.83777344 -0.15851563 17.13867188 -0.17578125 C18.95141602 -0.18544922 18.95141602 -0.18544922 20.80078125 -0.1953125 C21.91622314 -0.20578613 23.03166504 -0.21625977 24.1809082 -0.22705078 C27 0 27 0 30 2 C30.1875 4.625 30.1875 4.625 30 7 C30.309375 6.21625 30.61875 5.4325 30.9375 4.625 C32 2 32 2 33 0 C35.475 0.495 35.475 0.495 38 1 C38.53341184 2.57914015 39.05125763 4.16354387 39.5625 5.75 C39.85253906 6.63171875 40.14257812 7.5134375 40.44140625 8.421875 C41.01697435 11.07834316 40.89248371 12.47031106 40 15 C38.68 14.67 37.36 14.34 36 14 C36 13.34 36 12.68 36 12 C35.34 12 34.68 12 34 12 C33.67 12.99 33.34 13.98 33 15 C25.33333333 15 17.66666667 15 10 15 C10 11.7 10 8.4 10 5 C9.01 5 8.02 5 7 5 C7 7.97 7 10.94 7 14 C6.67 14 6.34 14 6 14 C5.97311849 12.35425434 5.95365877 10.70838587 5.9375 9.0625 C5.92589844 8.14597656 5.91429687 7.22945313 5.90234375 6.28515625 C6 4 6 4 7 3 C4.69 2.67 2.38 2.34 0 2 C0 1.34 0 0.68 0 0 Z M14 4 C14 4.33 14 4.66 14 5 C15.65 5 17.3 5 19 5 C19 6.32 19 7.64 19 9 C17.35 9 15.7 9 14 9 C14 9.33 14 9.66 14 10 C15.98 10 17.96 10 20 10 C20 8.02 20 6.04 20 4 C18.02 4 16.04 4 14 4 Z " fill="#232323" transform="translate(325,75)"/>
<path d="M0 0 C3.59265755 1.79632877 4.59074958 6.08595457 6.1875 9.625 C6.56841797 10.42035156 6.94933594 11.21570313 7.34179688 12.03515625 C9.64237399 17.12064251 10.5672162 20.43829373 9 26 C7.94745435 28.71950248 6.73190489 31.32562163 5.4375 33.9375 C5.10814453 34.62134766 4.77878906 35.30519531 4.43945312 36.00976562 C3.63482961 37.67731871 2.8186103 39.33926839 2 41 C-1.33023531 38.25383673 -2.89521911 34.57403146 -4.6875 30.75 C-5.00783203 30.10675781 -5.32816406 29.46351562 -5.65820312 28.80078125 C-7.74304342 24.3821645 -8.64053424 20.965509 -8 16 C-6.90125272 13.05148971 -5.49701204 10.32640906 -4 7.5625 C-3.6184375 6.83095703 -3.236875 6.09941406 -2.84375 5.34570312 C-1.90853443 3.55710335 -0.95600621 1.77757404 0 0 Z " fill="#FBFBFB" transform="translate(70,27)"/>
<path d="M0 0 C3.3 0 6.6 0 10 0 C10.63808594 1.34835938 11.27617188 2.69671875 11.93359375 4.0859375 C12.76821785 5.84896369 13.60285389 7.61198423 14.4375 9.375 C14.85837891 10.26445312 15.27925781 11.15390625 15.71289062 12.0703125 C16.11572266 12.92109375 16.51855469 13.771875 16.93359375 14.6484375 C17.4913147 15.82672119 17.4913147 15.82672119 18.06030273 17.02880859 C18.69424858 18.358629 19.34116624 19.68233248 20 21 C19.00390625 23.6015625 19.00390625 23.6015625 17.5625 26.625 C17.08941406 27.62789062 16.61632812 28.63078125 16.12890625 29.6640625 C15.75636719 30.43492188 15.38382813 31.20578125 15 32 C13.60585104 29.25509971 12.30125822 26.48671212 11.0546875 23.671875 C10.70019531 22.87265625 10.34570312 22.0734375 9.98046875 21.25 C9.61566406 20.425 9.25085938 19.6 8.875 18.75 C8.50246094 17.90953125 8.12992188 17.0690625 7.74609375 16.203125 C6.82988746 14.13578773 5.91455195 12.06806952 5 10 C2.60231063 12.97958475 0.94916891 15.95597919 -0.625 19.4375 C-1.05039063 20.36433594 -1.47578125 21.29117188 -1.9140625 22.24609375 C-2.93826451 24.84344057 -3.55100383 27.25114566 -4 30 C-5.71017726 27.4347341 -6.90417811 25.12039035 -8.125 22.3125 C-8.47820313 21.50425781 -8.83140625 20.69601563 -9.1953125 19.86328125 C-9.46085937 19.24839844 -9.72640625 18.63351563 -10 18 C-9.34 18 -8.68 18 -8 18 C-7.73445313 17.14148438 -7.46890625 16.28296875 -7.1953125 15.3984375 C-5.98976199 11.97089192 -4.52755614 8.85826202 -2.875 5.625 C-2.33617187 4.56539062 -1.79734375 3.50578125 -1.2421875 2.4140625 C-0.83226563 1.61742188 -0.42234375 0.82078125 0 0 Z " fill="#BFBFBF" transform="translate(66,18)"/>
<path d="M0 0 C0.78375 0.165 1.5675 0.33 2.375 0.5 C4.84988604 0.97140686 6.34867442 1.18609302 8.75 0.5 C11.53626811 -0.11917069 14.15492123 -0.06466088 17 0 C17.66 1.65 18.32 3.3 19 5 C19.66 3.35 20.32 1.7 21 0 C22.32 0 23.64 0 25 0 C25 1.65 25 3.3 25 5 C25.66 3.35 26.32 1.7 27 0 C28.32 0 29.64 0 31 0 C31 4.62 31 9.24 31 14 C29.68 14.33 28.36 14.66 27 15 C26.34 13.02 25.68 11.04 25 9 C25.020625 9.804375 25.04125 10.60875 25.0625 11.4375 C25 14 25 14 24 15 C21.32941149 15.14115161 18.67567762 15.04247107 16 15 C16 14.01 16 13.02 16 12 C15.34 12 14.68 12 14 12 C14 12.66 14 13.32 14 14 C12.35 14.33 10.7 14.66 9 15 C9.66 11.37 10.32 7.74 11 4 C9.16163081 7.67673838 8.06348187 11.04992447 7 15 C5.68 15 4.36 15 3 15 C2 10 1 5 0 0 Z " fill="#3A3A3A" transform="translate(246,75)"/>
<path d="M0 0 C5.625 -0.25 5.625 -0.25 9 2 C8.67 4.64 8.34 7.28 8 10 C8.66 10 9.32 10 10 10 C10.12375 8.72125 10.2475 7.4425 10.375 6.125 C10.75 2.25 10.75 2.25 13 0 C14.67542976 0.28604898 16.34385343 0.61781233 18 1 C18.33 0.67 18.66 0.34 19 0 C20.68608966 -0.07205511 22.37500659 -0.08386068 24.0625 -0.0625 C24.98160156 -0.05347656 25.90070313 -0.04445313 26.84765625 -0.03515625 C27.55792969 -0.02355469 28.26820313 -0.01195313 29 0 C29 1.65 29 3.3 29 5 C28.01 5 27.02 5 26 5 C26 7.97 26 10.94 26 14 C24.35 14.33 22.7 14.66 21 15 C21 11.7 21 8.4 21 5 C20.01 5 19.02 5 18 5 C18.350625 5.721875 18.70125 6.44375 19.0625 7.1875 C20.10409017 10.3122705 19.89096572 11.88161996 19 15 C18.01 15 17.02 15 16 15 C16 14.34 16 13.68 16 13 C15.484375 13.33 14.96875 13.66 14.4375 14 C11.21973488 15.32010877 8.4429472 15.13242105 5 15 C4.67 14.34 4.34 13.68 4 13 C3.01 13.495 3.01 13.495 2 14 C1.92875826 10.93660538 1.92508038 8.29286759 2.6875 5.3125 C2.790625 4.549375 2.89375 3.78625 3 3 C1.66621425 1.1645201 1.66621425 1.1645201 0 0 Z " fill="#313131" transform="translate(392,75)"/>
<path d="M0 0 C4 0 8 0 12 0 C13.2375 -0.061875 13.2375 -0.061875 14.5 -0.125 C17 0 17 0 19 2 C19.66 1.34 20.32 0.68 21 0 C27.02608696 -0.54782609 27.02608696 -0.54782609 30 1.125 C31.48877967 3.91646189 30.60837786 5.95811071 30 9 C30.28650932 10.6753511 30.61289722 12.34499537 31 14 C26.66666667 14 22.33333333 14 18 14 C17.21625 14.226875 16.4325 14.45375 15.625 14.6875 C13 15 13 15 10.6875 14 C8.22313375 11.07926963 8.72128632 8.6929562 9 5 C8.34 5 7.68 5 7 5 C7 7.97 7 10.94 7 14 C6.67 14 6.34 14 6 14 C5.67 10.7 5.34 7.4 5 4 C6.32 3.67 7.64 3.34 9 3 C9 2.34 9 1.68 9 1 C6.03 1 3.06 1 0 1 C0 0.67 0 0.34 0 0 Z M14 4 C13.67 5.65 13.34 7.3 13 9 C13.99 9.495 13.99 9.495 15 10 C15 8.02 15 6.04 15 4 C14.67 4 14.34 4 14 4 Z " fill="#151515" transform="translate(275,50)"/>
<path d="M0 0 C1.77049689 -0.05410687 3.54146849 -0.09284119 5.3125 -0.125 C6.29863281 -0.14820313 7.28476562 -0.17140625 8.30078125 -0.1953125 C11 0 11 0 14 2 C14 2.99 14 3.98 14 5 C14.66 5 15.32 5 16 5 C16.33 3.35 16.66 1.7 17 0 C19.475 0.495 19.475 0.495 22 1 C22.50757862 2.41396902 23.00574925 3.83131729 23.5 5.25 C23.7784375 6.03890625 24.056875 6.8278125 24.34375 7.640625 C25 10 25 10 25 14 C23.35 14 21.7 14 20 14 C20 13.34 20 12.68 20 12 C19.34 12 18.68 12 18 12 C18 12.66 18 13.32 18 14 C16.34385343 14.38218767 14.67542976 14.71395102 13 15 C12.67 14.67 12.34 14.34 12 14 C8.99668982 13.85806663 6.00782866 13.95763622 3 14 C3 9.71 3 5.42 3 1 C2.01 0.67 1.02 0.34 0 0 Z M9 5 C9 6.65 9 8.3 9 10 C9.33 10 9.66 10 10 10 C10 8.35 10 6.7 10 5 C9.67 5 9.34 5 9 5 Z " fill="#323232" transform="translate(463,50)"/>
<path d="M0 0 C7.92 0 15.84 0 24 0 C24 2.31 24 4.62 24 7 C23.67 7 23.34 7 23 7 C23 5.02 23 3.04 23 1 C16.07 1 9.14 1 2 1 C2 9.58 2 18.16 2 27 C8.93 27 15.86 27 23 27 C23 25.35 23 23.7 23 22 C18.38 22 13.76 22 9 22 C9 20.02 9 18.04 9 16 C13.29 16 17.58 16 22 16 C22 14.68 22 13.36 22 12 C18.04 12 14.08 12 10 12 C9.67 10.35 9.34 8.7 9 7 C9.33 7.99 9.66 8.98 10 10 C14.29 10 18.58 10 23 10 C23 12.31 23 14.62 23 17 C18.71 17 14.42 17 10 17 C10 18.32 10 19.64 10 21 C14.95 21 19.9 21 25 21 C25 23.31 25 25.62 25 28 C24 29 24 29 21.68334961 29.11352539 C20.68311768 29.10828857 19.68288574 29.10305176 18.65234375 29.09765625 C17.68031006 29.09515869 16.70827637 29.09266113 15.70678711 29.09008789 C14.46292236 29.08098389 13.21905762 29.07187988 11.9375 29.0625 C7.998125 29.041875 4.05875 29.02125 0 29 C0 19.43 0 9.86 0 0 Z " fill="#A24040" transform="translate(178,15)"/>
<path d="M0 0 C0.825 0.0825 1.65 0.165 2.5 0.25 C4.7084316 0.25 6.91689657 0.22557075 9.125 0.1875 C12.5 0.25 12.5 0.25 13.5 1.25 C13.54080783 3.24958364 13.54254356 5.25045254 13.5 7.25 C11.85 7.58 10.2 7.91 8.5 8.25 C8.5 9.9 8.5 11.55 8.5 13.25 C6.92249576 13.66846009 5.33755752 14.05896389 3.75 14.4375 C2.42742187 14.76814453 2.42742187 14.76814453 1.078125 15.10546875 C-1.5 15.25 -1.5 15.25 -3.828125 13.80078125 C-4.37984375 13.28902344 -4.9315625 12.77726562 -5.5 12.25 C-5.314375 11.6725 -5.12875 11.095 -4.9375 10.5 C-4.31939452 8.2718238 -4.31939452 8.2718238 -5.125 6.25 C-5.5 4.25 -5.5 4.25 -4.375 2 C-2.5 0.25 -2.5 0.25 0 0 Z M-0.5 9.25 C0.5 11.25 0.5 11.25 0.5 11.25 Z " fill="#131313" transform="translate(331.5,49.75)"/>
<path d="M0 0 C5.26343209 5.26343209 8.72183875 12.49516826 9.3125 19.9375 C7.86235484 26.2716246 4.06425129 32.30353285 1 38 C0.67 38 0.34 38 0 38 C0 25.46 0 12.92 0 0 Z " fill="#FAFAFA" transform="translate(42,29)"/>
<path d="M0 0 C2.00159958 3.00239937 3.68093106 5.63637419 5 9 C3.72938557 14.11982873 1.26533625 18.70413094 -1.125 23.375 C-1.49753906 24.11105469 -1.87007812 24.84710938 -2.25390625 25.60546875 C-3.1656122 27.40550358 -4.08229932 29.20301402 -5 31 C-6.32 31 -7.64 31 -9 31 C-10.57306858 20.88429509 -6.420562 13.40959465 -1.84790039 4.7265625 C-0.86905399 2.83105799 -0.86905399 2.83105799 0 0 Z " fill="#BFBFBF" transform="translate(51,47)"/>
<path d="M0 0 C10.1900404 4.69402324 16.58116529 11.74830348 21 22 C23.21446521 28.64339562 22.86282474 35.87692727 20 42.25 C19.35573236 43.51169079 18.69749149 44.76693469 18 46 C16.515 45.505 16.515 45.505 15 45 C15.33 44.13375 15.66 43.2675 16 42.375 C18.15067218 34.63571983 18.35342878 25.91124152 14.9375 18.5625 C11.63197318 12.85976393 7.25475082 8.72704318 2.0625 4.75 C1.381875 4.1725 0.70125 3.595 0 3 C0 2.01 0 1.02 0 0 Z " fill="#1D1D1D" transform="translate(110,17)"/>
<path d="M0 0 C5.61 0 11.22 0 17 0 C19.0733945 5.18348624 19.0733945 5.18348624 18 9 C18.33 10.65 18.66 12.3 19 14 C12.73 14 6.46 14 0 14 C0 13.67 0 13.34 0 13 C2.31 13 4.62 13 7 13 C7 12.34 7 11.68 7 11 C5.35 11 3.7 11 2 11 C2.33 10.34 2.66 9.68 3 9 C3.99 9 4.98 9 6 9 C6 8.34 6 7.68 6 7 C4.68 6.67 3.36 6.34 2 6 C2.33 5.34 2.66 4.68 3 4 C4.32 4 5.64 4 7 4 C7 3.01 7 2.02 7 1 C4.69 1 2.38 1 0 1 C0 0.67 0 0.34 0 0 Z " fill="#494949" transform="translate(228,50)"/>
<path d="M0 0 C1.32 0 2.64 0 4 0 C4.66 0.66 5.32 1.32 6 2 C8.21072977 2.24253813 8.21072977 2.24253813 10.625 2.125 C11.44226563 2.10695313 12.25953125 2.08890625 13.1015625 2.0703125 C13.72804688 2.04710938 14.35453125 2.02390625 15 2 C14.34 2.66 13.68 3.32 13 4 C12.53709779 6.66242821 12.53709779 6.66242821 12.375 9.625 C12.30023438 10.62789062 12.22546875 11.63078125 12.1484375 12.6640625 C12.09945313 13.43492188 12.05046875 14.20578125 12 15 C11.39414062 14.82339844 10.78828125 14.64679688 10.1640625 14.46484375 C7.92326151 13.82873819 7.92326151 13.82873819 5.375 14.5625 C4.59125 14.706875 3.8075 14.85125 3 15 C2.34 14.34 1.68 13.68 1 13 C0.34 13.66 -0.32 14.32 -1 15 C-1.99 15 -2.98 15 -4 15 C-3.5253725 12.6865641 -3.04517721 10.37426981 -2.5625 8.0625 C-2.29566406 6.77472656 -2.02882813 5.48695312 -1.75390625 4.16015625 C-1 1 -1 1 0 0 Z M6 5 C6.33 7.31 6.66 9.62 7 12 C7.33 12 7.66 12 8 12 C8.33 9.69 8.66 7.38 9 5 C8.01 5 7.02 5 6 5 Z " fill="#101010" transform="translate(319,75)"/>
<path d="M0 0 C3.09244792 0.03255208 6.18489583 0.06510417 9.27734375 0.09765625 C9.27734375 4.71765625 9.27734375 9.33765625 9.27734375 14.09765625 C4.98734375 14.09765625 0.69734375 14.09765625 -3.72265625 14.09765625 C-3.8203125 4.0390625 -3.8203125 4.0390625 -3.72265625 1.09765625 C-2.72265625 0.09765625 -2.72265625 0.09765625 0 0 Z " fill="#444444" transform="translate(254.72265625,49.90234375)"/>
<path d="M0 0 C0.33 0 0.66 0 1 0 C1 11.88 1 23.76 1 36 C-1.12606009 32.81090987 -2.92568307 29.52152884 -4.6875 26.125 C-5.02072266 25.51269531 -5.35394531 24.90039062 -5.69726562 24.26953125 C-7.06773432 21.60837167 -8.01508481 19.53383469 -7.9296875 16.51171875 C-6.67056988 13.10998502 -5.10842108 9.90030072 -3.4375 6.6875 C-2.9434668 5.71973633 -2.9434668 5.71973633 -2.43945312 4.73242188 C-1.63175745 3.15214772 -0.81662387 1.57567895 0 0 Z " fill="#F8F8F8" transform="translate(98,31)"/>
<path d="M0 0 C0.78375 0.165 1.5675 0.33 2.375 0.5 C5.00253478 1.00048282 6.4118121 1.18973803 8.9375 0.375 C11 0 11 0 14 2 C14.99 2 15.98 2 17 2 C16.37240135 4.92879371 15.41377341 7.36095629 14 10 C15.32 9.34 16.64 8.68 18 8 C18.33 9.65 18.66 11.3 19 13 C18.401875 12.773125 17.80375 12.54625 17.1875 12.3125 C16.465625 12.209375 15.74375 12.10625 15 12 C13.41666667 13.41666667 13.41666667 13.41666667 12 15 C11.01 15 10.02 15 9 15 C9.66 11.37 10.32 7.74 11 4 C9.16163081 7.67673838 8.06348187 11.04992447 7 15 C5.68 15 4.36 15 3 15 C2 10 1 5 0 0 Z " fill="#1F1F1F" transform="translate(246,75)"/>
<path d="M0 0 C5 0 10 0 15 0 C15 4.62 15 9.24 15 14 C10.71 14 6.42 14 2 14 C2.33 9.71 2.66 5.42 3 1 C2.01 0.67 1.02 0.34 0 0 Z " fill="#343434" transform="translate(167,50)"/>
<path d="M0 0 C0.7425 0.185625 1.485 0.37125 2.25 0.5625 C4.90413536 1.17809292 4.90413536 1.17809292 7.0625 0.4375 C9 0 9 0 13 2 C12.67 5.96 12.34 9.92 12 14 C10.68 14.33 9.36 14.66 8 15 C7.67 14.34 7.34 13.68 7 13 C6.34 13.66 5.68 14.32 5 15 C4.01 15 3.02 15 2 15 C0.53329887 9.77487721 -0.22577402 5.4185766 0 0 Z " fill="#151515" transform="translate(209,75)"/>
<path d="M0 0 C6.0546875 -0.1953125 6.0546875 -0.1953125 8 0 C8.66 0.66 9.32 1.32 10 2 C10.66 1.34 11.32 0.68 12 0 C13.32 0 14.64 0 16 0 C16.33 2.64 16.66 5.28 17 8 C16.34 7.67 15.68 7.34 15 7 C15 6.01 15 5.02 15 4 C14.34 4 13.68 4 13 4 C13 4.99 13 5.98 13 7 C12.34 7 11.68 7 11 7 C11 9.31 11 11.62 11 14 C10.01 14.33 9.02 14.66 8 15 C8 13.02 8 11.04 8 9 C7.01 9.495 7.01 9.495 6 10 C5.34786708 12.02463255 5.34786708 12.02463255 5 14 C3.35 14 1.7 14 0 14 C0 9.38 0 4.76 0 0 Z " fill="#303030" transform="translate(380,50)"/>
<path d="M0 0 C0.66015625 1.76953125 0.66015625 1.76953125 1 4 C-4.88919682 15.41184613 -20.10086697 21.53443695 -31.625 25.22265625 C-34.88419866 25.97332816 -37.67053526 26.15733751 -41 26 C-40.505 24.515 -40.505 24.515 -40 23 C-37.453125 22.12109375 -37.453125 22.12109375 -34.25 21.4375 C-30.30338824 20.5772164 -26.72564201 19.55596696 -23 18 C-20.67251306 17.31320058 -18.34013344 16.64238957 -16 16 C-16 15.34 -16 14.68 -16 14 C-14.4609375 12.73828125 -14.4609375 12.73828125 -12.375 11.3125 C-8.74400874 8.69870133 -5.99329784 5.91889363 -3.2265625 2.41796875 C-2 1 -2 1 0 0 Z " fill="#1E1E1E" transform="translate(126,61)"/>
<path d="M0 0 C5.61 0 11.22 0 17 0 C19 5 19 5 19 7 C19.12375 8.2065625 19.12375 8.2065625 19.25 9.4375 C19 12 19 12 17.3125 13.875 C14.42729162 15.27861489 13.01268757 14.92054342 10 14 C9 9.25 9 9.25 9 7 C8.67966043 4.99787771 8.34740923 2.99760305 8 1 C5.36 1 2.72 1 0 1 C0 0.67 0 0.34 0 0 Z " fill="#121212" transform="translate(410,50)"/>
<path d="M0 0 C-1.5 1.109375 -1.5 1.109375 -4 2 C-6.76888331 1.5424303 -9.30749295 0.9862115 -12 0.25 C-13.52394486 -0.13983877 -15.04869486 -0.52654308 -16.57421875 -0.91015625 C-17.32364746 -1.09980957 -18.07307617 -1.28946289 -18.84521484 -1.48486328 C-22.72201815 -2.41167667 -26.64339626 -3.01106262 -30.58203125 -3.60546875 C-33 -4 -33 -4 -34.86694336 -4.53222656 C-37.21091654 -5.04625342 -39.15451535 -5.02438758 -41.546875 -4.87890625 C-42.39121094 -4.83056641 -43.23554687 -4.78222656 -44.10546875 -4.73242188 C-44.97816406 -4.67634766 -45.85085937 -4.62027344 -46.75 -4.5625 C-48.08224609 -4.48418945 -48.08224609 -4.48418945 -49.44140625 -4.40429688 C-51.62799196 -4.27498267 -53.81407894 -4.14003358 -56 -4 C-56 -4.33 -56 -4.66 -56 -5 C-37.41654363 -10.54829813 -17.57721773 -7.28977635 0 0 Z " fill="#3D3D3D" transform="translate(106,14)"/>
<path d="M0 0 C1.32 0 2.64 0 4 0 C4 1.65 4 3.3 4 5 C4.66 5 5.32 5 6 5 C6 3.35 6 1.7 6 0 C7.32 0 8.64 0 10 0 C10 4.62 10 9.24 10 14 C8.68 14 7.36 14 6 14 C6 12.35 6 10.7 6 9 C5.34 9 4.68 9 4 9 C4 10.65 4 12.3 4 14 C2.35 14 0.7 14 -1 14 C-1.02685938 11.85423363 -1.04633088 9.70837355 -1.0625 7.5625 C-1.07410156 6.36753906 -1.08570313 5.17257813 -1.09765625 3.94140625 C-1 1 -1 1 0 0 Z " fill="#383838" transform="translate(434,50)"/>
<path d="M0 0 C7 0 7 0 8.91796875 1.21484375 C10.28709631 3.47365709 10.3688236 4.932621 10.3125 7.5625 C10.30863281 8.34753906 10.30476562 9.13257813 10.30078125 9.94140625 C10 12 10 12 8 14 C5.31160615 14.26991906 2.70858064 14.08737357 0 14 C0 9.38 0 4.76 0 0 Z M5 5 C5 6.65 5 8.3 5 10 C5.33 10 5.66 10 6 10 C6 8.35 6 6.7 6 5 C5.67 5 5.34 5 5 5 Z " fill="#3C3C3C" transform="translate(187,50)"/>
<path d="M0 0 C0.5625 1.9375 0.5625 1.9375 1 4 C0.67 4.33 0.34 4.66 0 5 C0.66 5.33 1.32 5.66 2 6 C2.625 9.0625 2.625 9.0625 3 12 C-1.12168689 13.62950412 -3.70700357 14.26264601 -8 13 C-9.51750995 8.14396816 -8.49713908 4.72780763 -7 0 C-4.3333581 -1.33332095 -2.83319697 -0.67102033 0 0 Z " fill="#1C1C1C" transform="translate(319,51)"/>
<path d="M0 0 C0.66 0.33 1.32 0.66 2 1 C1.67 17.17 1.34 33.34 1 50 C-0.98 50.495 -0.98 50.495 -3 51 C-2.01 51.66 -1.02 52.32 0 53 C-6.11827299 54.48701803 -8.89195863 53.03090348 -14.1640625 49.96875 C-18.66405777 46.84478634 -22.34619206 43.0597866 -26 39 C-25.67 38.01 -25.34 37.02 -25 36 C-24.55269531 36.56589844 -24.10539062 37.13179687 -23.64453125 37.71484375 C-22.73767578 38.81505859 -22.73767578 38.81505859 -21.8125 39.9375 C-21.22082031 40.66839844 -20.62914062 41.39929688 -20.01953125 42.15234375 C-17.67494797 44.29738803 -16.11608502 44.66094412 -13 45 C-12.67 45.99 -12.34 46.98 -12 48 C-8.99992729 49.70855022 -8.99992729 49.70855022 -6 51 C-6 50.34 -6 49.68 -6 49 C-4.02 49 -2.04 49 0 49 C0 32.83 0 16.66 0 0 Z " fill="#303030" transform="translate(41,28)"/>
<path d="M0 0 C1.65 0 3.3 0 5 0 C5 0.66 5 1.32 5 2 C5.66 2 6.32 2 7 2 C7.33 1.34 7.66 0.68 8 0 C8.99 0.33 9.98 0.66 11 1 C11 4.96 11 8.92 11 13 C10.67 13 10.34 13 10 13 C10 10.36 10 7.72 10 5 C9.34 5 8.68 5 8 5 C7.67 7.97 7.34 10.94 7 14 C4.69 14 2.38 14 0 14 C0 9.38 0 4.76 0 0 Z " fill="#1E1E1E" transform="translate(143,50)"/>
<path d="M0 0 C2.97 0 5.94 0 9 0 C8.979375 1.381875 8.95875 2.76375 8.9375 4.1875 C8.93212857 7.59298534 9.14429455 10.68414137 10 14 C6.7 14 3.4 14 0 14 C0 9.38 0 4.76 0 0 Z " fill="#444444" transform="translate(366,50)"/>
<path d="M0 0 C1.00496852 3.01490557 1.10335303 5.04181692 1.0625 8.1875 C1.05347656 9.08855469 1.04445313 9.98960938 1.03515625 10.91796875 C1.02355469 11.60503906 1.01195312 12.29210938 1 13 C-3.625 15.125 -3.625 15.125 -7 14 C-9.43726204 9.85665453 -9.12447749 6.58440825 -8 2 C-4.77208445 -0.1519437 -3.71599191 -0.20086443 0 0 Z M-5 5 C-4.67 6.65 -4.34 8.3 -4 10 C-3.34 10 -2.68 10 -2 10 C-2 8.35 -2 6.7 -2 5 C-2.99 5 -3.98 5 -5 5 Z " fill="#141414" transform="translate(453,50)"/>
<path d="M0 0 C0 1.32 0 2.64 0 4 C-0.66 4 -1.32 4 -2 4 C-2 6.97 -2 9.94 -2 13 C-3.32 13 -4.64 13 -6 13 C-6 10.03 -6 7.06 -6 4 C-6.99 4 -7.98 4 -9 4 C-9 4.66 -9 5.32 -9 6 C-9.99 6 -10.98 6 -12 6 C-12.33 6.66 -12.66 7.32 -13 8 C-13.66 7.01 -14.32 6.02 -15 5 C-14.01 4.34 -13.02 3.68 -12 3 C-12.99 2.67 -13.98 2.34 -15 2 C-15.33 2.66 -15.66 3.32 -16 4 C-16.33 2.68 -16.66 1.36 -17 0 C-11.06975197 -0.97040422 -5.93609666 -0.89316269 0 0 Z " fill="#1D1D1D" transform="translate(418,51)"/>
<path d="M0 0 C2.64 0 5.28 0 8 0 C8.79953138 3.28696233 9.09658936 4.71023192 8 8 C8.39397335 10.63804589 8.39397335 10.63804589 9 13 C2.25 13.125 2.25 13.125 0 12 C0 8.04 0 4.08 0 0 Z M3 3 C4 5 4 5 4 5 Z " fill="#282828" transform="translate(357,51)"/>
<path d="M0 0 C1.23749919 3.71249757 0.44518261 4.49101344 -1 8 C-2.14499428 16.66734041 -0.48855016 24.40587077 4.82421875 31.40234375 C6.4959122 33.33174248 8.20031534 35.19020475 10 37 C9.34 37.66 8.68 38.32 8 39 C0.55241654 31.19088337 -5.19014646 24.21864102 -5 13 C-4.4087731 8.03049818 -3.56046168 3.72230084 0 0 Z " fill="#080808" transform="translate(15,34)"/>
<path d="M0 0 C6.6 0 13.2 0 20 0 C20 0.33 20 0.66 20 1 C14.06 1 8.12 1 2 1 C2 9.58 2 18.16 2 27 C4.31 27 6.62 27 9 27 C9 24.03 9 21.06 9 18 C9.33 18 9.66 18 10 18 C10.02688151 19.64574566 10.04634123 21.29161413 10.0625 22.9375 C10.07410156 23.85402344 10.08570313 24.77054688 10.09765625 25.71484375 C10 28 10 28 9 29 C6.03 29 3.06 29 0 29 C0 19.43 0 9.86 0 0 Z " fill="#A03C3C" transform="translate(266,15)"/>
<path d="M0 0 C0.763125 0.20625 1.52625 0.4125 2.3125 0.625 C2.3125 1.615 2.3125 2.605 2.3125 3.625 C0.9925 3.955 -0.3275 4.285 -1.6875 4.625 C-0.3675 5.285 0.9525 5.945 2.3125 6.625 C2.3125 8.935 2.3125 11.245 2.3125 13.625 C-0.5625 14.25 -0.5625 14.25 -3.6875 14.625 C-4.3475 13.965 -5.0075 13.305 -5.6875 12.625 C-5.40145102 10.94957024 -5.06968767 9.28114657 -4.6875 7.625 C-5.0175 7.295 -5.3475 6.965 -5.6875 6.625 C-5.9375 4.1875 -5.9375 4.1875 -5.6875 1.625 C-2.6875 -0.375 -2.6875 -0.375 0 0 Z " fill="#212121" transform="translate(287.6875,75.375)"/>
<path d="M0 0 C0.886875 0.185625 1.77375 0.37125 2.6875 0.5625 C5.86450218 0.98210406 7.92408923 0.70306532 11 0 C12.80746134 1.80746134 12.17303483 4.50445781 12.1875 6.9375 C12.20167969 8.01902344 12.21585937 9.10054687 12.23046875 10.21484375 C12 13 12 13 10 15 C7.875 14.625 7.875 14.625 6 14 C6.04125 13.236875 6.0825 12.47375 6.125 11.6875 C6.22080824 8.77281584 6.22080824 8.77281584 4 6 C4 4.68 4 3.36 4 2 C2.68 2 1.36 2 0 2 C0 1.34 0 0.68 0 0 Z " fill="#2A2A2A" transform="translate(304,75)"/>
<path d="M0 0 C1.65 0.33 3.3 0.66 5 1 C6.59138085 5.17737474 7.21278058 8.53160785 7 13 C4.69 12.34 2.38 11.68 0 11 C0 11.66 0 12.32 0 13 C-0.99 12.67 -1.98 12.34 -3 12 C-2.69106068 10.3743193 -2.3777305 8.74947252 -2.0625 7.125 C-1.88847656 6.22007813 -1.71445312 5.31515625 -1.53515625 4.3828125 C-1 2 -1 2 0 0 Z " fill="#202020" transform="translate(358,75)"/>
<path d="M0 0 C2.31 0.33 4.62 0.66 7 1 C6.01 1.33 5.02 1.66 4 2 C4.2784375 3.1446875 4.2784375 3.1446875 4.5625 4.3125 C5 7 5 7 4 10 C4.66 10 5.32 10 6 10 C6.33 8.35 6.66 6.7 7 5 C9 7 9 7 9.125 10.125 C9.08375 11.07375 9.0425 12.0225 9 13 C7 14 7 14 0 14 C0 9.38 0 4.76 0 0 Z " fill="#050505" transform="translate(370,76)"/>
<path d="M0 0 C1.32 0 2.64 0 4 0 C4.99 4.29 5.98 8.58 7 13 C5.68 13.33 4.36 13.66 3 14 C3 13.34 3 12.68 3 12 C1.35 12.33 -0.3 12.66 -2 13 C-3.18771723 9.57056481 -2.80226223 7.62215325 -1.5625 4.25 C-1.27503906 3.45078125 -0.98757812 2.6515625 -0.69140625 1.828125 C-0.46324219 1.22484375 -0.23507813 0.6215625 0 0 Z " fill="#131313" transform="translate(210,50)"/>
<path d="M0 0 C5.625 -0.25 5.625 -0.25 9 2 C9.1875 4.4375 9.1875 4.4375 9 7 C8.66781808 10.00259517 8.66781808 10.00259517 10.5 11.6875 C10.995 12.120625 11.49 12.55375 12 13 C12 12.34 12 11.68 12 11 C16.75 11.875 16.75 11.875 19 13 C19.33 12.34 19.66 11.68 20 11 C19.67 12.32 19.34 13.64 19 15 C17.68 14.67 16.36 14.34 15 14 C15 13.34 15 12.68 15 12 C14.34 12 13.68 12 13 12 C13 12.66 13 13.32 13 14 C9.75 13.9375 9.75 13.9375 6 13 C3.35371079 10.03341065 2 7.01695961 2 3 C1.34 2.67 0.68 2.34 0 2 C0 1.34 0 0.68 0 0 Z " fill="#363636" transform="translate(346,75)"/>
<path d="M0 0 C2.475 0.495 2.475 0.495 5 1 C5.33 2.32 5.66 3.64 6 5 C6.66 4.67 7.32 4.34 8 4 C7.67 7.3 7.34 10.6 7 14 C4.69 14 2.38 14 0 14 C0 9.38 0 4.76 0 0 Z " fill="#0D0D0D" transform="translate(303,76)"/>
<path d="M0 0 C2.69082872 0.17635452 5.32851446 0.61835921 8 1 C8 1.99 8 2.98 8 4 C6.35 4 4.7 4 3 4 C3 4.66 3 5.32 3 6 C4.65 6 6.3 6 8 6 C7.67 6.99 7.34 7.98 7 9 C5.68 9 4.36 9 3 9 C3 9.66 3 10.32 3 11 C4.65 11 6.3 11 8 11 C8 11.66 8 12.32 8 13 C5.36 13.33 2.72 13.66 0 14 C-0.85380428 11.03878992 -1.13517764 8.3912356 -1.125 5.3125 C-1.12757813 4.52488281 -1.13015625 3.73726562 -1.1328125 2.92578125 C-1 1 -1 1 0 0 Z " fill="#0B0B0B" transform="translate(227,50)"/>
<path d="M0 0 C0.33 0 0.66 0 1 0 C1 8.91 1 17.82 1 27 C3.31 27 5.62 27 8 27 C8 23.37 8 19.74 8 16 C8.33 16 8.66 16 9 16 C9.02686553 17.97909398 9.04633375 19.95828971 9.0625 21.9375 C9.07410156 23.03964844 9.08570313 24.14179687 9.09765625 25.27734375 C9 28 9 28 8 29 C6.48071962 29.07179964 4.95832518 29.08392007 3.4375 29.0625 C2.61121094 29.05347656 1.78492188 29.04445313 0.93359375 29.03515625 C-0.02353516 29.01775391 -0.02353516 29.01775391 -1 29 C-1.02465881 25.03069011 -1.04284023 21.06140966 -1.05493164 17.09204102 C-1.05997057 15.74079614 -1.06680177 14.38955674 -1.07543945 13.03833008 C-1.08752419 11.09979566 -1.09269828 9.161222 -1.09765625 7.22265625 C-1.10289307 6.05484619 -1.10812988 4.88703613 -1.11352539 3.68383789 C-1 1 -1 1 0 0 Z " fill="#6A2525" transform="translate(429,15)"/>
<path d="M0 0 C0.99 0 1.98 0 3 0 C3.33 1.65 3.66 3.3 4 5 C4.66 5 5.32 5 6 5 C6.33 7.31 6.66 9.62 7 12 C5.68 12.33 4.36 12.66 3 13 C3 12.34 3 11.68 3 11 C2.484375 11.33 1.96875 11.66 1.4375 12 C-1.78026512 13.32010877 -4.5570528 13.13242105 -8 13 C-8.33 11.68 -8.66 10.36 -9 9 C-8.34 9 -7.68 9 -7 9 C-7 9.66 -7 10.32 -7 11 C-5.68 11.33 -4.36 11.66 -3 12 C-2.34 9.36 -1.68 6.72 -1 4 C0.32 5.32 1.64 6.64 3 8 C2.690625 7.236875 2.38125 6.47375 2.0625 5.6875 C1.32106407 3.81210323 0.63771783 1.91315348 0 0 Z " fill="#060606" transform="translate(405,77)"/>
<path d="M0 0 C5.625 -0.25 5.625 -0.25 9 2 C9.06473583 4.00681087 9.11931251 6.01718714 9.0390625 8.0234375 C8.99669726 10.16711873 9.32238511 11.96715532 10 14 C8.68 13.67 7.36 13.34 6 13 C6 12.34 6 11.68 6 11 C5.01 11 4.02 11 3 11 C2.67 11.99 2.34 12.98 2 14 C1.92875826 10.93660538 1.92508038 8.29286759 2.6875 5.3125 C2.790625 4.549375 2.89375 3.78625 3 3 C1.66621425 1.1645201 1.66621425 1.1645201 0 0 Z " fill="#353535" transform="translate(392,75)"/>
<path d="M0 0 C0.33 0.66 0.66 1.32 1 2 C2.98 2 4.96 2 7 2 C5.68 2.33 4.36 2.66 3 3 C3.433125 3.83144531 3.433125 3.83144531 3.875 4.6796875 C4.431875 5.76636719 4.431875 5.76636719 5 6.875 C5.556875 7.95394531 5.556875 7.95394531 6.125 9.0546875 C7 11 7 11 7 13 C9.97 13.495 9.97 13.495 13 14 C13 14.33 13 14.66 13 15 C8.66666667 15 4.33333333 15 0 15 C0 10.05 0 5.1 0 0 Z " fill="#0B0B0B" transform="translate(345,75)"/>
<path d="M0 0 C1.98 0 3.96 0 6 0 C7.11445498 2.22890995 7.16480286 3.53055106 7.1875 6 C7.20167969 6.70125 7.21585937 7.4025 7.23046875 8.125 C7 10 7 10 5 12 C3.35 12 1.7 12 0 12 C0 8.04 0 4.08 0 0 Z M3 4 C3 5.65 3 7.3 3 9 C3.33 9 3.66 9 4 9 C4 7.35 4 5.7 4 4 C3.67 4 3.34 4 3 4 Z " fill="#2A2A2A" transform="translate(469,51)"/>
<path d="M0 0 C0 3.96 0 7.92 0 12 C-0.99 11.67 -1.98 11.34 -3 11 C-4.1875 7.9375 -4.1875 7.9375 -5 5 C-5.66 5 -6.32 5 -7 5 C-7 7.31 -7 9.62 -7 12 C-7.33 12 -7.66 12 -8 12 C-8 8.04 -8 4.08 -8 0 C-3 -1 -3 -1 0 0 Z " fill="#161616" transform="translate(181,51)"/>
<path d="M0 0 C2.31 0 4.62 0 7 0 C7 1.98 7 3.96 7 6 C5.35 6.33 3.7 6.66 2 7 C2 8.65 2 10.3 2 12 C0.68 12.33 -0.64 12.66 -2 13 C-1.85769192 11.58297487 -1.71099254 10.1663904 -1.5625 8.75 C-1.48128906 7.96109375 -1.40007812 7.1721875 -1.31640625 6.359375 C-1.02365007 4.17635361 -0.57935581 2.1226818 0 0 Z " fill="#101010" transform="translate(338,51)"/>
<path d="M0 0 C1.65 0.33 3.3 0.66 5 1 C4.37240135 3.92879371 3.41377341 6.36095629 2 9 C3.32 8.34 4.64 7.68 6 7 C6.33 8.65 6.66 10.3 7 12 C6.401875 11.773125 5.80375 11.54625 5.1875 11.3125 C4.465625 11.209375 3.74375 11.10625 3 11 C1.41666667 12.41666667 1.41666667 12.41666667 0 14 C-0.99 14 -1.98 14 -3 14 C-2.68872484 12.41642541 -2.37592711 10.83315007 -2.0625 9.25 C-1.80146484 7.92742187 -1.80146484 7.92742187 -1.53515625 6.578125 C-1.07631512 4.36764947 -0.56663926 2.18487932 0 0 Z " fill="#0D0D0D" transform="translate(258,76)"/>
<path d="M0 0 C-0.33 3.96 -0.66 7.92 -1 12 C-2.32 12.33 -3.64 12.66 -5 13 C-6.125 7.375 -6.125 7.375 -5 4 C-5.66 4 -6.32 4 -7 4 C-6.6875 2.0625 -6.6875 2.0625 -6 0 C-3 -1 -3 -1 0 0 Z " fill="#0A0A0A" transform="translate(222,77)"/>
<path d="M0 0 C2.97 0 5.94 0 9 0 C9 1.65 9 3.3 9 5 C8.01 5 7.02 5 6 5 C6 7.97 6 10.94 6 14 C4.35 14.33 2.7 14.66 1 15 C1 11.37 1 7.74 1 4 C4.465 3.505 4.465 3.505 8 3 C8 2.34 8 1.68 8 1 C5.36 1 2.72 1 0 1 C0 0.67 0 0.34 0 0 Z " fill="#3C3C3C" transform="translate(412,75)"/>
<path d="M0 0 C2.11618257 3.48547718 2.11618257 3.48547718 1.5625 5.9375 C1.376875 6.618125 1.19125 7.29875 1 8 C1.38567131 10.68149993 1.38567131 10.68149993 2 13 C-1.3 13 -4.6 13 -8 13 C-7.01 12.67 -6.02 12.34 -5 12 C-5 10.35 -5 8.7 -5 7 C-4.01 6.67 -3.02 6.34 -2 6 C-2.99 6 -3.98 6 -5 6 C-5 4.68 -5 3.36 -5 2 C-3.68 2.33 -2.36 2.66 -1 3 C-0.67 2.01 -0.34 1.02 0 0 Z " fill="#2A2A2A" transform="translate(304,51)"/>
<path d="M0 0 C0.66 0 1.32 0 2 0 C2 1.65 2 3.3 2 5 C3.94999129 4.80528889 3.94999129 4.80528889 6 4 C6.66 2.68 7.32 1.36 8 0 C8 4.29 8 8.58 8 13 C7.01 13 6.02 13 5 13 C5 11.35 5 9.7 5 8 C4.01 8 3.02 8 2 8 C2 9.32 2 10.64 2 12 C1.34 12 0.68 12 0 12 C0 8.04 0 4.08 0 0 Z " fill="#0A0A0A" transform="translate(435,51)"/>
<path d="M0 0 C3 3 3 3 3.29296875 5.04296875 C3.1953125 7.02864583 3.09765625 9.01432292 3 11 C5.7839183 9.60804085 5.97898997 7.84424221 7 5 C7.66 5.33 8.32 5.66 9 6 C9.125 8.375 9.125 8.375 9 11 C6.23776722 13.76223278 3.79293383 13.57856291 0 14 C0 9.38 0 4.76 0 0 Z " fill="#0B0B0B" transform="translate(187,50)"/>
<path d="M0 0 C5.61 0 11.22 0 17 0 C18.92108883 4.80272207 19 7.06992413 19 12 C18.773125 11.401875 18.54625 10.80375 18.3125 10.1875 C16.66064339 7.43440566 14.76147267 6.55775381 12 5 C11.67 4.34 11.34 3.68 11 3 C10.01 3.66 9.02 4.32 8 5 C8 3.68 8 2.36 8 1 C5.36 1 2.72 1 0 1 C0 0.67 0 0.34 0 0 Z " fill="#424242" transform="translate(410,50)"/>
<path d="M0 0 C0 0.33 0 0.66 0 1 C-1.83111328 1.18175781 -1.83111328 1.18175781 -3.69921875 1.3671875 C-14.877877 2.49734507 -25.98269359 3.73644432 -37 6 C-30.68095605 0.65311666 -23.29503074 0.45265286 -15.375 -0.1875 C-13.82039063 -0.32961914 -13.82039063 -0.32961914 -12.234375 -0.47460938 C-3.83901922 -1.18506907 -3.83901922 -1.18506907 0 0 Z " fill="#141414" transform="translate(73,9)"/>
<path d="M0 0 C1.32 0 2.64 0 4 0 C6.125 4.625 6.125 4.625 5 8 C2.39757586 9.64820195 1.13751221 10 -2 10 C-1.85950482 8.52031676 -1.71245174 7.04125484 -1.5625 5.5625 C-1.48128906 4.73878906 -1.40007812 3.91507812 -1.31640625 3.06640625 C-1 1 -1 1 0 0 Z " fill="#2B2B2B" transform="translate(319,75)"/>
<path d="M0 0 C3.78536223 5.67804335 3.63107119 11.36145889 3 18 C1.97470852 21.19676034 0.65117213 24.08096355 -1 27 C-1.99 26.67 -2.98 26.34 -4 26 C-3.11038932 22.50998886 -2.34854184 19.53621821 -0.375 16.5 C2.43487455 11.39113718 0.90383522 5.53599072 0 0 Z " fill="#505050" transform="translate(129,36)"/>
<path d="M0 0 C2.31 0 4.62 0 7 0 C6.67 1.32 6.34 2.64 6 4 C4.68 3.34 3.36 2.68 2 2 C2 3.32 2 4.64 2 6 C2.99 6 3.98 6 5 6 C4.67 6.66 4.34 7.32 4 8 C3.34 7.67 2.68 7.34 2 7 C2 8.65 2 10.3 2 12 C0.68 12.33 -0.64 12.66 -2 13 C-1.85769192 11.58297487 -1.71099254 10.1663904 -1.5625 8.75 C-1.48128906 7.96109375 -1.40007812 7.1721875 -1.31640625 6.359375 C-1.02365007 4.17635361 -0.57935581 2.1226818 0 0 Z " fill="#080808" transform="translate(297,51)"/>
<path d="M0 0 C0.99 0 1.98 0 3 0 C3.02687279 1.81242052 3.04633715 3.62495233 3.0625 5.4375 C3.07410156 6.44683594 3.08570313 7.45617187 3.09765625 8.49609375 C3 11 3 11 2 12 C-0.5 12.125 -0.5 12.125 -3 12 C-4 11 -4 11 -4.09765625 8.71484375 C-4.08605469 7.79832031 -4.07445312 6.88179688 -4.0625 5.9375 C-4.05347656 5.01839844 -4.04445313 4.09929687 -4.03515625 3.15234375 C-4.02355469 2.44207031 -4.01195312 1.73179688 -4 1 C-3.67 1 -3.34 1 -3 1 C-3 3.64 -3 6.28 -3 9 C-2.01 9 -1.02 9 0 9 C0 6.03 0 3.06 0 0 Z " fill="#010101" transform="translate(298,76)"/>
<path d="M0 0 C3.375 -0.125 3.375 -0.125 7 0 C9.35302007 2.35302007 9.39392208 3.27435295 9.75 6.5 C9.89695312 7.69109375 9.89695312 7.69109375 10.046875 8.90625 C10 11 10 11 8 13 C7.34 11.02 6.68 9.04 6 7 C5.67 8.32 5.34 9.64 5 11 C4.34 11 3.68 11 3 11 C3.061875 9.741875 3.12375 8.48375 3.1875 7.1875 C3.23632922 3.83041021 3.23632922 3.83041021 1.5 1 C1.005 0.67 0.51 0.34 0 0 Z " fill="#474747" transform="translate(371,75)"/>
<path d="M0 0 C1.32 0 2.64 0 4 0 C4 4.29 4 8.58 4 13 C2.35 12.67 0.7 12.34 -1 12 C-1 9.69 -1 7.38 -1 5 C-0.67 5.66 -0.34 6.32 0 7 C0.66 7 1.32 7 2 7 C1.34 6.01 0.68 5.02 0 4 C0 2.68 0 1.36 0 0 Z " fill="#0A0A0A" transform="translate(462,51)"/>
<path d="M0 0 C1.32 0 2.64 0 4 0 C4 4.29 4 8.58 4 13 C2.68 13 1.36 13 0 13 C0 8.71 0 4.42 0 0 Z " fill="#0D0D0D" transform="translate(223,77)"/>
<path d="M0 0 C0.66 0 1.32 0 2 0 C2 1.32 2 2.64 2 4 C3.32 4 4.64 4 6 4 C6 2.68 6 1.36 6 0 C6.66 0 7.32 0 8 0 C8 3.63 8 7.26 8 11 C7.34 11 6.68 11 6 11 C6 9.35 6 7.7 6 6 C4.68 6 3.36 6 2 6 C2 7.65 2 9.3 2 11 C1.34 11 0.68 11 0 11 C0 7.37 0 3.74 0 0 Z " fill="#020202" transform="translate(268,77)"/>
<path d="M0 0 C1.32 0.33 2.64 0.66 4 1 C4 4.96 4 8.92 4 13 C2.68 13.33 1.36 13.66 0 14 C0 9.38 0 4.76 0 0 Z " fill="#131313" transform="translate(166,50)"/>
<path d="M0 0 C2.12046792 3.53411321 2.53199289 6.94393835 3 11 C1.68 11.33 0.36 11.66 -1 12 C-1 11.34 -1 10.68 -1 10 C-1.99 9.67 -2.98 9.34 -4 9 C-3.34 8.34 -2.68 7.68 -2 7 C-2.66 6.67 -3.32 6.34 -4 6 C-3.67 4.35 -3.34 2.7 -3 1 C-2.34 1.33 -1.68 1.66 -1 2 C-0.67 1.34 -0.34 0.68 0 0 Z " fill="#303030" transform="translate(245,78)"/>
<path d="M0 0 C1.98 0 3.96 0 6 0 C6 0.66 6 1.32 6 2 C4.35 2 2.7 2 1 2 C1 2.99 1 3.98 1 5 C2.65 5 4.3 5 6 5 C6.33 5.99 6.66 6.98 7 8 C5.35 8 3.7 8 2 8 C2 8.66 2 9.32 2 10 C3.32 10 4.64 10 6 10 C6 10.66 6 11.32 6 12 C4.02 12 2.04 12 0 12 C0 8.04 0 4.08 0 0 Z " fill="#080808" transform="translate(368,51)"/>
<path d="M0 0 C0.99 0.33 1.98 0.66 3 1 C3 4.3 3 7.6 3 11 C4.65 11 6.3 11 8 11 C8 11.66 8 12.32 8 13 C5.69 13 3.38 13 1 13 C-1.60585556 9.09121666 -1.22321871 5.53878034 -1 1 C-0.67 0.67 -0.34 0.34 0 0 Z " fill="#070707" transform="translate(218,50)"/>
<path d="M0 0 C0.66 0.33 1.32 0.66 2 1 C0.68 1.99 -0.64 2.98 -2 4 C-1.67 4.66 -1.34 5.32 -1 6 C-5.75 8 -5.75 8 -8 8 C-9.65924572 9.19075429 -9.65924572 9.19075429 -11.375 10.75 C-11.99246094 11.29398438 -12.60992188 11.83796875 -13.24609375 12.3984375 C-15.22698248 14.20726686 -17.14069656 16.06632442 -19 18 C-16.60177036 10.48731378 -9.58166678 5.35171235 -3 1.375 C-2.01 0.92125 -1.02 0.4675 0 0 Z " fill="#171717" transform="translate(33,15)"/>
<path d="M0 0 C4.44585687 1.92653798 5.94789884 4.74921902 8 9 C5.36 9.33 2.72 9.66 0 10 C-0.95024979 6.30458414 -0.95024979 3.69541586 0 0 Z " fill="#161616" transform="translate(313,53)"/>
<path d="M0 0 C1.02826931 3.13667908 0.99386675 4.83184742 -0.21484375 7.890625 C-0.48876953 8.59960938 -0.76269531 9.30859375 -1.04492188 10.0390625 C-1.33947266 10.76867188 -1.63402344 11.49828125 -1.9375 12.25 C-2.37352539 13.36761719 -2.37352539 13.36761719 -2.81835938 14.5078125 C-3.53573722 16.34241814 -4.26657439 18.17175065 -5 20 C-1.04 19.505 -1.04 19.505 3 19 C2.67 19.99 2.34 20.98 2 22 C-0.97 22 -3.94 22 -7 22 C-5.56006454 14.27670981 -2.94467554 7.2717751 0 0 Z " fill="#491414" transform="translate(241,22)"/>
<path d="M0 0 C1.32 0 2.64 0 4 0 C5.25 6.625 5.25 6.625 3 10 C0.525 9.01 0.525 9.01 -2 8 C-1.125 1.125 -1.125 1.125 0 0 Z " fill="#313131" transform="translate(384,75)"/>
<path d="M0 0 C2.475 0.495 2.475 0.495 5 1 C5.50512244 2.60256108 6.00391627 4.20711792 6.5 5.8125 C6.7784375 6.70582031 7.056875 7.59914063 7.34375 8.51953125 C8 11 8 11 8 14 C5.5625 13.625 5.5625 13.625 3 13 C2.67 12.34 2.34 11.68 2 11 C2.99 11.33 3.98 11.66 5 12 C4.67 11.01 4.34 10.02 4 9 C3.01 9.33 2.02 9.66 1 10 C1.54723683 6.62537285 2.0549 4.91765 4 2 C2.68 2.33 1.36 2.66 0 3 C0 2.01 0 1.02 0 0 Z " fill="#424242" transform="translate(259,75)"/>
<path d="M0 0 C1.32 0.33 2.64 0.66 4 1 C4 4.96 4 8.92 4 13 C3.67 13 3.34 13 3 13 C2.67 11.35 2.34 9.7 2 8 C1.34 9.65 0.68 11.3 0 13 C-0.99 12.67 -1.98 12.34 -3 12 C-2.125 6.25 -2.125 6.25 -1 4 C-0.64830932 2.67139075 -0.31229724 1.33841672 0 0 Z " fill="#0E0E0E" transform="translate(258,50)"/>
<path d="M0 0 C1.65 0 3.3 0 5 0 C5 1.32 5 2.64 5 4 C4.34 4 3.68 4 3 4 C3 6.97 3 9.94 3 13 C2.01 13 1.02 13 0 13 C0 8.71 0 4.42 0 0 Z " fill="#141414" transform="translate(251,51)"/>
<path d="M0 0 C1.32 0 2.64 0 4 0 C4.33 2.64 4.66 5.28 5 8 C4.34 7.67 3.68 7.34 3 7 C3 6.01 3 5.02 3 4 C2.34 4 1.68 4 1 4 C1 4.99 1 5.98 1 7 C0.34 7 -0.32 7 -1 7 C-1 9.31 -1 11.62 -1 14 C-1.99 14.33 -2.98 14.66 -4 15 C-3.43179252 9.54520815 -2.05362055 5.08940744 0 0 Z " fill="#181818" transform="translate(392,50)"/>
<path d="M0 0 C5.66666667 0 11.33333333 0 17 0 C16.1028125 0.2784375 16.1028125 0.2784375 15.1875 0.5625 C11.90018201 2.72273753 11.35145313 5.35107655 10 9 C9.67 7.68 9.34 6.36 9 5 C8.34 5 7.68 5 7 5 C7 7.97 7 10.94 7 14 C6.67 14 6.34 14 6 14 C5.67 10.7 5.34 7.4 5 4 C6.32 3.67 7.64 3.34 9 3 C9 2.34 9 1.68 9 1 C6.03 1 3.06 1 0 1 C0 0.67 0 0.34 0 0 Z " fill="#5D5D5D" transform="translate(275,50)"/>
<path d="M0 0 C2.5654594 2.5654594 2.54046087 4.47686668 3 8 C2.34 8 1.68 8 1 8 C1 7.34 1 6.68 1 6 C-0.98491642 6.26676204 -0.98491642 6.26676204 -3 7 C-3.33 7.99 -3.66 8.98 -4 10 C-5.32 9.67 -6.64 9.34 -8 9 C-7.34 6.36 -6.68 3.72 -6 1 C-5.01 1 -4.02 1 -3 1 C-2.67 1.99 -2.34 2.98 -2 4 C-1.34 4.33 -0.68 4.66 0 5 C0 3.35 0 1.7 0 0 Z " fill="#070707" transform="translate(387,80)"/>
<path d="M0 0 C0.99 0.33 1.98 0.66 3 1 C2.67 4.63 2.34 8.26 2 12 C5.465 11.505 5.465 11.505 9 11 C9 11.66 9 12.32 9 13 C7 14 7 14 0 14 C0 9.38 0 4.76 0 0 Z " fill="#111111" transform="translate(370,76)"/>
<path d="M0 0 C0.886875 0.185625 1.77375 0.37125 2.6875 0.5625 C5.86450218 0.98210406 7.92408923 0.70306532 11 0 C12 1 12 1 12.0625 4.5625 C12.041875 5.696875 12.02125 6.83125 12 8 C11.34 7.67 10.68 7.34 10 7 C10 5.35 10 3.7 10 2 C9.01 2 8.02 2 7 2 C6.67 4.31 6.34 6.62 6 9 C4 6 4 6 4 2 C2.68 2 1.36 2 0 2 C0 1.34 0 0.68 0 0 Z " fill="#676767" transform="translate(304,75)"/>
<path d="M0 0 C2.31 0 4.62 0 7 0 C6.67 1.32 6.34 2.64 6 4 C4.68 3.34 3.36 2.68 2 2 C2 3.32 2 4.64 2 6 C2.99 6 3.98 6 5 6 C4.67 6.66 4.34 7.32 4 8 C3.34 7.67 2.68 7.34 2 7 C2 8.65 2 10.3 2 12 C1.34 12 0.68 12 0 12 C0 8.04 0 4.08 0 0 Z " fill="#020202" transform="translate(238,51)"/>
<path d="M0 0 C0 0.33 0 0.66 0 1 C-1.98 1 -3.96 1 -6 1 C-6.2165625 2.299375 -6.2165625 2.299375 -6.4375 3.625 C-6.95833333 6.75 -7.47916667 9.875 -8 13 C-8.33 13 -8.66 13 -9 13 C-9.0825 12.05125 -9.165 11.1025 -9.25 10.125 C-9.65074923 6.89538209 -9.65074923 6.89538209 -12.0625 5.625 C-12.701875 5.41875 -13.34125 5.2125 -14 5 C-13.67 4.01 -13.34 3.02 -13 2 C-12.01 2.33 -11.02 2.66 -10 3 C-9.67 2.34 -9.34 1.68 -9 1 C-6.04335481 -0.4783226 -3.25770263 -0.06032783 0 0 Z " fill="#494949" transform="translate(344,50)"/>
<path d="M0 0 C0.86625 0.2784375 0.86625 0.2784375 1.75 0.5625 C4.20692525 1.04023546 5.64397534 0.75729364 8 0 C8.33 1.32 8.66 2.64 9 4 C8.67 3.34 8.34 2.68 8 2 C7.01 2.495 7.01 2.495 6 3 C5.67 3.99 5.34 4.98 5 6 C5.66 6 6.32 6 7 6 C7.33 6.99 7.66 7.98 8 9 C7.34 9 6.68 9 6 9 C5.67 10.32 5.34 11.64 5 13 C4.87625 12.21625 4.7525 11.4325 4.625 10.625 C4.20882007 7.85942178 4.20882007 7.85942178 2 6 C1.875 3.375 1.875 3.375 2 1 C1.34 0.67 0.68 0.34 0 0 Z " fill="#474747" transform="translate(210,75)"/>
<path d="M0 0 C2.97 0.33 5.94 0.66 9 1 C9 1.66 9 2.32 9 3 C8.01 3.33 7.02 3.66 6 4 C5.67 6.97 5.34 9.94 5 13 C4.67 13 4.34 13 4 13 C4 10.03 4 7.06 4 4 C2.35 4.33 0.7 4.66 -1 5 C-0.67 3.35 -0.34 1.7 0 0 Z " fill="#0B0B0B" transform="translate(411,75)"/>
<path d="M0 0 C2.64 0 5.28 0 8 0 C8 4.62 8 9.24 8 14 C7.67 14 7.34 14 7 14 C7 10.04 7 6.08 7 2 C5.68 2 4.36 2 3 2 C3.020625 3.051875 3.04125 4.10375 3.0625 5.1875 C3.01103198 8.32704904 2.73482813 10.96883396 2 14 C1.67 14 1.34 14 1 14 C1.33 10.04 1.66 6.08 2 2 C1.34 2 0.68 2 0 2 C0 1.34 0 0.68 0 0 Z " fill="#606060" transform="translate(220,75)"/>
<path d="M0 0 C1.32 0.33 2.64 0.66 4 1 C3.34 2.32 2.68 3.64 2 5 C3.32 5 4.64 5 6 5 C6.33 3.68 6.66 2.36 7 1 C7 2.65 7 4.3 7 6 C6.34 6 5.68 6 5 6 C4.67 6.66 4.34 7.32 4 8 C3.34 7.67 2.68 7.34 2 7 C2 8.65 2 10.3 2 12 C1.34 12 0.68 12 0 12 C0 8.04 0 4.08 0 0 Z " fill="#020202" transform="translate(357,51)"/>
<path d="M0 0 C0.99 0 1.98 0 3 0 C3.99 3.96 4.98 7.92 6 12 C5.34 12 4.68 12 4 12 C4 11.34 4 10.68 4 10 C2.02 10 0.04 10 -2 10 C-1.67 8.68 -1.34 7.36 -1 6 C-0.67 6.66 -0.34 7.32 0 8 C0.66 6.35 1.32 4.7 2 3 C1.34 3 0.68 3 0 3 C0 2.01 0 1.02 0 0 Z " fill="#050505" transform="translate(349,51)"/>
<path d="M0 0 C4 1 4 1 5.75 3.4375 C7 6 7 6 7 8 C5.66666667 8.66666667 4.33333333 9.33333333 3 10 C2.67 11.32 2.34 12.64 2 14 C1.34 9.38 0.68 4.76 0 0 Z " fill="#313131" transform="translate(457,50)"/>
<path d="M0 0 C2 1 2 1 4 4 C4.1953125 6.26171875 4.1953125 6.26171875 4.125 8.6875 C4.10695313 9.49574219 4.08890625 10.30398437 4.0703125 11.13671875 C4.03550781 12.05904297 4.03550781 12.05904297 4 13 C2.68 13.33 1.36 13.66 0 14 C0 9.38 0 4.76 0 0 Z " fill="#1D1D1D" transform="translate(303,76)"/>
<path d="M0 0 C2.97 0.495 2.97 0.495 6 1 C5.79375 1.5775 5.5875 2.155 5.375 2.75 C4.91338739 5.51967567 5.57055055 6.64561267 7 9 C7.99 8.67 8.98 8.34 10 8 C10 8.66 10 9.32 10 10 C8.02 10 6.04 10 4 10 C4.33 9.01 4.66 8.02 5 7 C3.35 7 1.7 7 0 7 C0 4.69 0 2.38 0 0 Z " fill="#525252" transform="translate(201,54)"/>
<path d="M0 0 C1.4606285 2.64738916 2 3.89448334 2 7 C-0.31 7 -2.62 7 -5 7 C-5 5.02 -5 3.04 -5 1 C-2 0 -2 0 0 0 Z " fill="#363636" transform="translate(408,57)"/>
<path d="M0 0 C0.99 0 1.98 0 3 0 C3 4.62 3 9.24 3 14 C1.35 14 -0.3 14 -2 14 C-2.33 12.68 -2.66 11.36 -3 10 C-3.66 10 -4.32 10 -5 10 C-5 8.68 -5 7.36 -5 6 C-4.34 6 -3.68 6 -3 6 C-2.54625 6.969375 -2.0925 7.93875 -1.625 8.9375 C-0.34213779 12.07079582 -0.34213779 12.07079582 2 13 C2 9.04 2 5.08 2 1 C1.34 0.67 0.68 0.34 0 0 Z " fill="#3D3D3D" transform="translate(179,50)"/>
<path d="M0 0 C0.66 0.33 1.32 0.66 2 1 C1.67 2.98 1.34 4.96 1 7 C-0.32 7.33 -1.64 7.66 -3 8 C-3 8.99 -3 9.98 -3 11 C-3.66 11 -4.32 11 -5 11 C-5 7.7 -5 4.4 -5 1 C-4.01 2.485 -4.01 2.485 -3 4 C-2.34 4 -1.68 4 -1 4 C-0.67 2.68 -0.34 1.36 0 0 Z " fill="#090909" transform="translate(387,52)"/>
<path d="M0 0 C0.598125 0.20625 1.19625 0.4125 1.8125 0.625 C0.8225 0.625 -0.1675 0.625 -1.1875 0.625 C-1.1875 1.615 -1.1875 2.605 -1.1875 3.625 C-0.5275 3.625 0.1325 3.625 0.8125 3.625 C0.8125 5.275 0.8125 6.925 0.8125 8.625 C-0.1775 8.295 -1.1675 7.965 -2.1875 7.625 C-2.8475 8.285 -3.5075 8.945 -4.1875 9.625 C-4.5175 6.985 -4.8475 4.345 -5.1875 1.625 C-2.1875 -0.375 -2.1875 -0.375 0 0 Z " fill="#313131" transform="translate(350.1875,50.375)"/>
<path d="M0 0 C1.32 0 2.64 0 4 0 C4.33 0.99 4.66 1.98 5 3 C3.68 2.67 2.36 2.34 1 2 C1 2.66 1 3.32 1 4 C2.32 4.66 3.64 5.32 5 6 C5 7.65 5 9.3 5 11 C3.35 11.33 1.7 11.66 0 12 C0.99 11.34 1.98 10.68 3 10 C3 9.34 3 8.68 3 8 C0.53673288 6.3553326 0.53673288 6.3553326 -2 5 C-1.125 1.125 -1.125 1.125 0 0 Z " fill="#030303" transform="translate(330,51)"/>
<path d="M0 0 C1.98 0 3.96 0 6 0 C5.01 1.485 5.01 1.485 4 3 C3.34 2.67 2.68 2.34 2 2 C2 4.64 2 7.28 2 10 C2.66 10 3.32 10 4 10 C4 10.66 4 11.32 4 12 C2.68 12 1.36 12 0 12 C0 8.04 0 4.08 0 0 Z " fill="#060606" transform="translate(469,51)"/>
<path d="M0 0 C2.125 0.9375 2.125 0.9375 4 2 C4.66 1.34 5.32 0.68 6 0 C7 1 7 1 7.0625 3.5625 C7.041875 4.366875 7.02125 5.17125 7 6 C4.03 5.505 4.03 5.505 1 5 C0.67 5.99 0.34 6.98 0 8 C-0.99 8 -1.98 8 -3 8 C-2.74438677 5.6568787 -2.40729228 3.32156597 -2 1 C-1.34 0.67 -0.68 0.34 0 0 Z " fill="#080808" transform="translate(318,82)"/>
<path d="M0 0 C5.32405622 2.6734043 9.63843559 4.8845759 13 10 C12.4225 9.690625 11.845 9.38125 11.25 9.0625 C9.10973696 7.93835738 9.10973696 7.93835738 7.0625 7.625 C4.08439225 6.72254311 2.24259876 5.11800994 0 3 C0 2.01 0 1.02 0 0 Z " fill="#464646" transform="translate(110,17)"/>
<path d="M0 0 C1.65 0 3.3 0 5 0 C5.33 2.97 5.66 5.94 6 9 C5.34 8.67 4.68 8.34 4 8 C4 7.67 4 7.34 4 7 C2.35 6.67 0.7 6.34 -1 6 C-0.67 4.02 -0.34 2.04 0 0 Z " fill="#4C4C4C" transform="translate(339,80)"/>
<path d="M0 0 C2.33294775 -0.04241723 4.66702567 -0.04092937 7 0 C8 1 8 1 8.0625 3.5625 C8.041875 4.366875 8.02125 5.17125 8 6 C7.01 6.495 7.01 6.495 6 7 C6 5.35 6 3.7 6 2 C5.34 3.32 4.68 4.64 4 6 C3.01 5.67 2.02 5.34 1 5 C0.67 3.35 0.34 1.7 0 0 Z " fill="#272727" transform="translate(382,51)"/>
<path d="M0 0 C3.3 0.33 6.6 0.66 10 1 C10 1.66 10 2.32 10 3 C9.01 3.33 8.02 3.66 7 4 C6.67 6.97 6.34 9.94 6 13 C5.67 13 5.34 13 5 13 C4.67 10.03 4.34 7.06 4 4 C2.68 3.67 1.36 3.34 0 3 C0 2.01 0 1.02 0 0 Z " fill="#050505" transform="translate(274,50)"/>
<path d="M0 0 C1.32 0 2.64 0 4 0 C4.80967438 2.91482778 5.21845993 4.46113217 4.0625 7.3125 C3.5365625 8.1478125 3.5365625 8.1478125 3 9 C2.01 9 1.02 9 0 9 C0 6.03 0 3.06 0 0 Z " fill="#353535" transform="translate(159,50)"/>
<path d="M0 0 C3.3 0 6.6 0 10 0 C10.33 1.32 10.66 2.64 11 4 C13.31 4 15.62 4 18 4 C18.33 4.66 18.66 5.32 19 6 C16.03 6 13.06 6 10 6 C9.67 4.35 9.34 2.7 9 1 C6.03 1 3.06 1 0 1 C0 0.67 0 0.34 0 0 Z " fill="#5F1818" transform="translate(345,38)"/>
<path d="M0 0 C1.80411967 2.75924185 2.0127245 3.88972103 1.625 7.25 C1.41875 8.1575 1.2125 9.065 1 10 C0.01 9.34 -0.98 8.68 -2 8 C-2 7.34 -2 6.68 -2 6 C-2.99 6 -3.98 6 -5 6 C-5 4.68 -5 3.36 -5 2 C-3.68 2.33 -2.36 2.66 -1 3 C-0.67 2.01 -0.34 1.02 0 0 Z " fill="#404040" transform="translate(304,51)"/>
<path d="M0 0 C0.33 0.99 0.66 1.98 1 3 C0.071875 3.763125 -0.85625 4.52625 -1.8125 5.3125 C-3.98276101 7.11848552 -6.05568065 8.9476629 -8 11 C-8 7 -8 7 -6.25 5.078125 C-5.5075 4.47484375 -4.765 3.8715625 -4 3.25 C-3.2575 2.63640625 -2.515 2.0228125 -1.75 1.390625 C-1.1725 0.93171875 -0.595 0.4728125 0 0 Z " fill="#0A0A0A" transform="translate(26,21)"/>
<path d="M0 0 C0.66 0.33 1.32 0.66 2 1 C2 1.66 2 2.32 2 3 C3.32 3.66 4.64 4.32 6 5 C6 6.98 6 8.96 6 11 C3.625 11.1875 3.625 11.1875 1 11 C0.34 10.01 -0.32 9.02 -1 8 C1.475 8.495 1.475 8.495 4 9 C4 8.34 4 7.68 4 7 C2.68 6.34 1.36 5.68 0 5 C0 3.35 0 1.7 0 0 Z " fill="#020202" transform="translate(284,77)"/>
<path d="M0 0 C0.66 0 1.32 0 2 0 C2 2.97 2 5.94 2 9 C3.32 9 4.64 9 6 9 C6 9.66 6 10.32 6 11 C4.02 11 2.04 11 0 11 C0 7.37 0 3.74 0 0 Z " fill="#000000" transform="translate(230,77)"/>
<path d="M0 0 C2.475 0.495 2.475 0.495 5 1 C5.5625 2.9375 5.5625 2.9375 6 5 C5.67 5.33 5.34 5.66 5 6 C5.66 6.33 6.32 6.66 7 7 C6.67 8.32 6.34 9.64 6 11 C4.5 9.8125 4.5 9.8125 3 8 C2.8125 5.3125 2.8125 5.3125 3 3 C2.34 3 1.68 3 1 3 C0.67 2.01 0.34 1.02 0 0 Z " fill="#4E4E4E" transform="translate(314,50)"/>
<path d="M0 0 C0.763125 0.0825 1.52625 0.165 2.3125 0.25 C1.673125 0.4975 1.03375 0.745 0.375 1 C-1.87491541 2.06562433 -1.87491541 2.06562433 -2.4375 4.375 C-2.52 4.99375 -2.6025 5.6125 -2.6875 6.25 C-1.3675 7.24 -0.0475 8.23 1.3125 9.25 C0.6525 9.25 -0.0075 9.25 -0.6875 9.25 C-1.0175 9.91 -1.3475 10.57 -1.6875 11.25 C-4.6875 9.25 -4.6875 9.25 -5.5625 6.875 C-5.6875 4.25 -5.6875 4.25 -4.5625 1.9375 C-2.6875 0.25 -2.6875 0.25 0 0 Z " fill="#2F2F2F" transform="translate(331.6875,49.75)"/>
<path d="M0 0 C1.74627478 2.61941217 2.38722388 4.03824877 3 7 C4.98 7 6.96 7 9 7 C9.33 6.01 9.66 5.02 10 4 C9.67 5.65 9.34 7.3 9 9 C6.69 9 4.38 9 2 9 C0.50178941 5.62902617 0 3.79557881 0 0 Z " fill="#6A2626" transform="translate(153,35)"/>
<path d="M0 0 C2.0625 0.4375 2.0625 0.4375 4 1 C3.01 3.31 2.02 5.62 1 8 C0.67 7.01 0.34 6.02 0 5 C-0.99 5 -1.98 5 -3 5 C-1.125 1.125 -1.125 1.125 0 0 Z " fill="#454545" transform="translate(254,75)"/>
<path d="M0 0 C0.66 0.33 1.32 0.66 2 1 C1.67 2.98 1.34 4.96 1 7 C0.01 7 -0.98 7 -2 7 C-2 6.34 -2 5.68 -2 5 C-2.66 5 -3.32 5 -4 5 C-3.6875 3.0625 -3.6875 3.0625 -3 1 C-2.01 0.67 -1.02 0.34 0 0 Z " fill="#111111" transform="translate(219,76)"/>
<path d="M0 0 C1.125 1.75 1.125 1.75 2 4 C1.125 6.25 1.125 6.25 0 8 C-0.66 8 -1.32 8 -2 8 C-2 7.34 -2 6.68 -2 6 C-2.99 6 -3.98 6 -5 6 C-5 4.68 -5 3.36 -5 2 C-3.68 2.33 -2.36 2.66 -1 3 C-0.67 2.01 -0.34 1.02 0 0 Z " fill="#414141" transform="translate(245,51)"/>
<path d="M0 0 C0 0.33 0 0.66 0 1 C-1.98 1 -3.96 1 -6 1 C-6.12375 2.093125 -6.2475 3.18625 -6.375 4.3125 C-7 8 -7 8 -9 11 C-9.33 8.03 -9.66 5.06 -10 2 C-6.3558226 -0.4294516 -4.28758728 -0.16179575 0 0 Z " fill="#4A4A4A" transform="translate(303,50)"/>
<path d="M0 0 C1.99954746 -0.04254356 4.00041636 -0.04080783 6 0 C7 1 7 1 7.0625 3.5625 C7.041875 4.366875 7.02125 5.17125 7 6 C6.34 6 5.68 6 5 6 C4.67 6.66 4.34 7.32 4 8 C3.34 7.01 2.68 6.02 2 5 C2.99 4.34 3.98 3.68 5 3 C4.01 2.67 3.02 2.34 2 2 C1.67 2.66 1.34 3.32 1 4 C0.67 2.68 0.34 1.36 0 0 Z " fill="#050505" transform="translate(401,51)"/>
<path d="M0 0 C2 3 2 3 1.625 5.6875 C1.41875 6.450625 1.2125 7.21375 1 8 C0.01 8 -0.98 8 -2 8 C-2 7.34 -2 6.68 -2 6 C-3.32 6.33 -4.64 6.66 -6 7 C-6 6.01 -6 5.02 -6 4 C-4.35 4 -2.7 4 -1 4 C-0.67 2.68 -0.34 1.36 0 0 Z " fill="#383838" transform="translate(410,82)"/>
<path d="M0 0 C0.99 0.33 1.98 0.66 3 1 C3.6875 3.0625 3.6875 3.0625 4 5 C6.97 5.495 6.97 5.495 10 6 C10 6.33 10 6.66 10 7 C3.375 7.125 3.375 7.125 0 6 C0 4.02 0 2.04 0 0 Z " fill="#171717" transform="translate(348,83)"/>
<path d="M0 0 C5.61 0 11.22 0 17 0 C15.02 0.99 15.02 0.99 13 2 C11.32665961 2.98879205 9.65848177 3.98648336 8 5 C8 3.68 8 2.36 8 1 C5.36 1 2.72 1 0 1 C0 0.67 0 0.34 0 0 Z " fill="#5E5E5E" transform="translate(410,50)"/>
<path d="M0 0 C2.31 0 4.62 0 7 0 C7 0.66 7 1.32 7 2 C6.01 2.495 6.01 2.495 5 3 C4.53348793 5.12576782 4.53348793 5.12576782 4.375 7.5625 C4.30023438 8.38878906 4.22546875 9.21507812 4.1484375 10.06640625 C4.09945313 10.70449219 4.05046875 11.34257813 4 12 C3.67 12 3.34 12 3 12 C2.92652344 11.04287109 2.92652344 11.04287109 2.8515625 10.06640625 C2.77679688 9.24011719 2.70203125 8.41382813 2.625 7.5625 C2.55539062 6.73878906 2.48578125 5.91507813 2.4140625 5.06640625 C2.27742188 4.38449219 2.14078125 3.70257813 2 3 C1.34 2.67 0.68 2.34 0 2 C0 1.34 0 0.68 0 0 Z " fill="#010101" transform="translate(411,51)"/>
<path d="M0 0 C0.99 0.33 1.98 0.66 3 1 C2.67 3.97 2.34 6.94 2 10 C0.68 10 -0.64 10 -2 10 C-1.34 9.67 -0.68 9.34 0 9 C0 6.03 0 3.06 0 0 Z " fill="#1C1C1C" transform="translate(298,76)"/>
<path d="M0 0 C0.66 0.99 1.32 1.98 2 3 C1.67 3.99 1.34 4.98 1 6 C-0.32 6 -1.64 6 -3 6 C-3.66 5.34 -4.32 4.68 -5 4 C-5.99 4.495 -5.99 4.495 -7 5 C-6.67 4.01 -6.34 3.02 -6 2 C-4.35 2.33 -2.7 2.66 -1 3 C-0.67 2.01 -0.34 1.02 0 0 Z " fill="#353535" transform="translate(325,84)"/>
<path d="M0 0 C1.32 0 2.64 0 4 0 C4 1.65 4 3.3 4 5 C4.66 5 5.32 5 6 5 C6 5.66 6 6.32 6 7 C4.68 6.67 3.36 6.34 2 6 C1.67 4.35 1.34 2.7 1 1 C1 2.65 1 4.3 1 6 C0.67 6 0.34 6 0 6 C0 4.02 0 2.04 0 0 Z " fill="#2C2C2C" transform="translate(270,83)"/>
<path d="M0 0 C0.66 1.32 1.32 2.64 2 4 C2.66 4.33 3.32 4.66 4 5 C4 6.65 4 8.3 4 10 C3.01 10.33 2.02 10.66 1 11 C0.67 7.37 0.34 3.74 0 0 Z " fill="#030303" transform="translate(211,77)"/>
<path d="M0 0 C1.32 0.33 2.64 0.66 4 1 C4 4.96 4 8.92 4 13 C3.67 13 3.34 13 3 13 C3 10.36 3 7.72 3 5 C2.34 5 1.68 5 1 5 C0.67 3.35 0.34 1.7 0 0 Z " fill="#050505" transform="translate(258,50)"/>
<path d="M0 0 C0.33 0.66 0.66 1.32 1 2 C3.64 1.67 6.28 1.34 9 1 C8.67 1.99 8.34 2.98 8 4 C5.03 4 2.06 4 -1 4 C-0.67 2.68 -0.34 1.36 0 0 Z " fill="#6A1C1D" transform="translate(235,40)"/>
<path d="M0 0 C0.99 0 1.98 0 3 0 C3.33 1.65 3.66 3.3 4 5 C2.35 5 0.7 5 -1 5 C-0.67 3.35 -0.34 1.7 0 0 Z " fill="#2C2C2C" transform="translate(243,59)"/>
<path d="M0 0 C0.99 0 1.98 0 3 0 C3 2.64 3 5.28 3 8 C2.01 8 1.02 8 0 8 C0 5.36 0 2.72 0 0 Z " fill="#191919" transform="translate(481,51)"/>
<path d="M0 0 C0.66 0 1.32 0 2 0 C2.66 1.98 3.32 3.96 4 6 C3.01 5.67 2.02 5.34 1 5 C1 7.31 1 9.62 1 12 C0.67 12 0.34 12 0 12 C0 8.04 0 4.08 0 0 Z " fill="#010101" transform="translate(173,51)"/>
<path d="M0 0 C2.64 0 5.28 0 8 0 C8.33 1.32 8.66 2.64 9 4 C8.34 4 7.68 4 7 4 C7 3.34 7 2.68 7 2 C4.69 2 2.38 2 0 2 C0 1.34 0 0.68 0 0 Z " fill="#616161" transform="translate(336,75)"/>
<path d="M0 0 C0.37125 0.515625 0.7425 1.03125 1.125 1.5625 C3.03173152 3.36319983 3.03173152 3.36319983 6.1875 2.6875 C7.115625 2.460625 8.04375 2.23375 9 2 C8.67 2.99 8.34 3.98 8 5 C5.6875 5.625 5.6875 5.625 3 6 C2.01 5.34 1.02 4.68 0 4 C0 2.68 0 1.36 0 0 Z " fill="#171717" transform="translate(419,59)"/>
<path d="M0 0 C2.64 0 5.28 0 8 0 C7.34 0.66 6.68 1.32 6 2 C5.53993654 4.20250992 5.53993654 4.20250992 5.375 6.625 C5.30023438 7.44226563 5.22546875 8.25953125 5.1484375 9.1015625 C5.09945313 9.72804688 5.05046875 10.35453125 5 11 C4.67 11 4.34 11 4 11 C3.96261719 10.37351562 3.92523438 9.74703125 3.88671875 9.1015625 C3.82097656 8.28429687 3.75523437 7.46703125 3.6875 6.625 C3.62949219 5.81289062 3.57148438 5.00078125 3.51171875 4.1640625 C3.17009472 1.62078662 3.17009472 1.62078662 0 0 Z " fill="#000000" transform="translate(326,77)"/>
<path d="M0 0 C0.66 1.32 1.32 2.64 2 4 C-0.64 4.33 -3.28 4.66 -6 5 C-6.33 3.68 -6.66 2.36 -7 1 C-5.35 1.99 -3.7 2.98 -2 4 C-2 3.01 -2 2.02 -2 1 C-1.34 0.67 -0.68 0.34 0 0 Z " fill="#020202" transform="translate(319,58)"/>
<path d="M0 0 C0.66 0.33 1.32 0.66 2 1 C2 1.66 2 2.32 2 3 C2.66 3 3.32 3 4 3 C4 3.66 4 4.32 4 5 C2.68 5 1.36 5 0 5 C-0.33 5.66 -0.66 6.32 -1 7 C-1.33 5.02 -1.66 3.04 -2 1 C-1.34 0.67 -0.68 0.34 0 0 Z " fill="#292929" transform="translate(409,50)"/>
<path d="M0 0 C0.99 0 1.98 0 3 0 C3 1.32 3 2.64 3 4 C2.34 4 1.68 4 1 4 C1 6.64 1 9.28 1 12 C0.67 12 0.34 12 0 12 C0 8.04 0 4.08 0 0 Z " fill="#030303" transform="translate(253,51)"/>
<path d="M0 0 C0.66 0.66 1.32 1.32 2 2 C1.625 4.625 1.625 4.625 1 7 C-0.32 6.67 -1.64 6.34 -3 6 C-2.34 5.67 -1.68 5.34 -1 5 C-0.34444881 2.47266765 -0.34444881 2.47266765 0 0 Z " fill="#0B0B0B" transform="translate(377,81)"/>
<path d="M0 0 C1.67542976 0.28604898 3.34385343 0.61781233 5 1 C5 1.99 5 2.98 5 4 C3.35 4 1.7 4 0 4 C-0.33 3.01 -0.66 2.02 -1 1 C-0.67 0.67 -0.34 0.34 0 0 Z " fill="#2E2E2E" transform="translate(285,75)"/>
<path d="M0 0 C0.33 1.65 0.66 3.3 1 5 C-0.32 5 -1.64 5 -3 5 C-3 4.34 -3 3.68 -3 3 C-3.99 2.67 -4.98 2.34 -6 2 C-2.25 0 -2.25 0 0 0 Z " fill="#0F0F0F" transform="translate(486,59)"/>
<path d="M0 0 C0.33 0 0.66 0 1 0 C1 3.96 1 7.92 1 12 C0.67 12 0.34 12 0 12 C0 10.35 0 8.7 0 7 C-1.32 6.34 -2.64 5.68 -4 5 C-3.01 4.67 -2.02 4.34 -1 4 C-0.26676204 1.98491642 -0.26676204 1.98491642 0 0 Z " fill="#000000" transform="translate(442,51)"/>
<path d="M0 0 C2.31 0 4.62 0 7 0 C6.67 1.32 6.34 2.64 6 4 C4.68 3.34 3.36 2.68 2 2 C1.67 2.66 1.34 3.32 1 4 C0.67 2.68 0.34 1.36 0 0 Z " fill="#080808" transform="translate(238,51)"/>
<path d="M0 0 C0.391875 0.474375 0.78375 0.94875 1.1875 1.4375 C3.40808374 3.35179633 5.13375709 3.61266988 8 4 C7.34 4.66 6.68 5.32 6 6 C3.375 5.625 3.375 5.625 1 5 C0.67 3.35 0.34 1.7 0 0 Z " fill="#141414" transform="translate(282,84)"/>
<path d="M0 0 C0.99 0 1.98 0 3 0 C2.855625 0.515625 2.71125 1.03125 2.5625 1.5625 C1.84190099 4.68509571 1.42733561 7.82550692 1 11 C0.67 11 0.34 11 0 11 C0 7.37 0 3.74 0 0 Z " fill="#050505" transform="translate(305,77)"/>
<path d="M0 0 C0.99 0 1.98 0 3 0 C3 3.96 3 7.92 3 12 C2.67 12 2.34 12 2 12 C2 9.03 2 6.06 2 3 C1.34 3 0.68 3 0 3 C0 2.01 0 1.02 0 0 Z " fill="#010101" transform="translate(151,51)"/>
<path d="M0 0 C0.99 0 1.98 0 3 0 C3 3.63 3 7.26 3 11 C2.67 11 2.34 11 2 11 C2 8.36 2 5.72 2 3 C1.34 3 0.68 3 0 3 C0 2.01 0 1.02 0 0 Z " fill="#020202" transform="translate(311,77)"/>
<path d="M0 0 C0.66 0.33 1.32 0.66 2 1 C2 1.99 2 2.98 2 4 C0.35 4.33 -1.3 4.66 -3 5 C-3 3.68 -3 2.36 -3 1 C-2.01 1.33 -1.02 1.66 0 2 C0 1.34 0 0.68 0 0 Z " fill="#3E3E3E" transform="translate(334,51)"/>
</svg>
